<?xml version="1.0" standalone="no"?>
<!DOCTYPE svg PUBLIC "-//W3C//DTD SVG 20010904//EN"
 "http://www.w3.org/TR/2001/REC-SVG-20010904/DTD/svg10.dtd">
<svg version="1.0" xmlns="http://www.w3.org/2000/svg"
 width="2048.000000pt" height="2048.000000pt" viewBox="0 0 2048.000000 2048.000000"
 preserveAspectRatio="xMidYMid meet">
<metadata>
Created by potrace 1.14, written by Peter Selinger 2001-2017
</metadata>
<g transform="translate(0.000000,2048.000000) scale(0.100000,-0.100000)"
fill="#000000" stroke="none">
<path d="M18190 16399 c-14 -11 -32 -26 -40 -33 -9 -6 -42 -32 -75 -56 -33
-25 -65 -49 -72 -55 -6 -5 -26 -21 -44 -35 -18 -14 -38 -31 -46 -38 -7 -7 -13
-11 -13 -7 0 3 -10 -4 -22 -16 -13 -11 -34 -28 -48 -37 -14 -9 -29 -22 -33
-29 -4 -7 -13 -13 -19 -13 -6 0 -18 -7 -27 -15 -28 -27 -74 -64 -116 -93 -21
-15 -47 -34 -56 -42 -9 -8 -29 -24 -45 -35 -37 -26 -84 -73 -84 -85 0 -5 54
-82 120 -170 410 -552 780 -1201 1060 -1860 340 -800 574 -1716 665 -2605 3
-27 7 -66 10 -85 2 -19 7 -75 10 -125 3 -49 8 -108 10 -130 22 -216 22 -898 0
-1160 -2 -27 -7 -86 -10 -130 -45 -604 -172 -1279 -355 -1895 -99 -332 -264
-780 -390 -1055 -5 -11 -34 -76 -66 -145 -253 -558 -591 -1121 -991 -1656 -46
-61 -83 -117 -83 -125 0 -8 22 -30 50 -49 27 -19 49 -38 50 -42 0 -5 5 -8 10
-8 6 0 18 -8 28 -17 10 -10 30 -27 46 -38 15 -11 37 -28 49 -37 12 -10 69 -53
127 -97 58 -44 110 -84 115 -89 26 -21 219 -169 238 -182 12 -8 31 -23 41 -33
16 -14 49 -16 62 -3 4 3 201 267 214 286 8 12 33 47 56 78 101 141 285 422
391 597 167 277 242 416 413 760 349 704 607 1425 786 2200 63 270 132 651
169 940 27 204 33 258 60 585 23 285 34 807 21 1085 -17 374 -29 533 -61 810
-44 377 -94 675 -175 1039 -270 1213 -775 2389 -1468 3420 -106 157 -140 206
-289 410 -104 143 -123 155 -173 115z"/>
<path d="M2184 16278 c-277 -374 -541 -785 -758 -1181 -83 -151 -260 -505
-318 -633 -10 -22 -34 -75 -54 -119 -233 -516 -500 -1313 -599 -1785 -2 -8
-11 -46 -20 -85 -55 -236 -132 -667 -160 -900 -3 -27 -8 -61 -10 -75 -5 -27
-30 -280 -40 -395 -3 -38 -8 -90 -10 -115 -27 -291 -27 -1238 0 -1470 1 -14 6
-65 10 -115 11 -143 13 -159 40 -390 23 -193 82 -557 122 -750 19 -93 39 -188
43 -210 62 -298 206 -797 340 -1175 338 -953 799 -1817 1417 -2651 51 -70 100
-129 108 -133 13 -5 109 60 215 146 19 16 40 32 45 36 21 15 91 67 105 79 8 6
53 41 100 77 47 36 90 69 95 73 6 5 28 21 50 38 22 16 45 34 51 40 6 5 39 30
72 55 36 26 61 53 62 64 0 10 -37 68 -83 130 -665 892 -1159 1896 -1460 2966
-112 398 -215 894 -262 1265 -21 166 -27 216 -31 269 -3 34 -7 71 -9 83 -2 13
-7 71 -10 130 -4 60 -8 118 -10 131 -6 36 -16 332 -19 517 -3 228 11 593 29
785 2 25 7 74 10 110 40 432 120 904 230 1348 294 1189 826 2302 1575 3298 17
22 28 47 25 55 -3 8 -23 26 -45 39 -22 14 -40 28 -40 32 0 4 -12 14 -27 22
-16 8 -41 26 -58 40 -16 15 -35 30 -40 34 -30 21 -132 98 -141 107 -36 31 -55
45 -63 45 -5 0 -11 4 -13 8 -1 4 -32 30 -68 57 -36 27 -70 54 -76 60 -6 5 -22
17 -34 25 -25 17 -122 92 -130 100 -6 7 -58 40 -62 40 -2 0 -45 -55 -94 -122z"/>
<path d="M16760 15303 c-14 -9 -29 -23 -33 -30 -4 -7 -14 -13 -22 -13 -7 0
-15 -3 -17 -8 -1 -4 -52 -46 -113 -92 -60 -47 -114 -88 -120 -92 -43 -34 -219
-167 -240 -182 -14 -11 -36 -28 -48 -38 -26 -21 -27 -22 -94 -73 -29 -21 -56
-47 -59 -58 -4 -12 8 -36 33 -70 720 -958 1183 -2030 1377 -3192 22 -133 31
-196 51 -350 42 -331 59 -804 43 -1170 -7 -148 -32 -449 -43 -520 -2 -16 -7
-52 -10 -80 -4 -27 -17 -120 -31 -205 -161 -1020 -534 -1986 -1099 -2850 -76
-116 -245 -355 -312 -440 -51 -66 -52 -63 67 -155 47 -35 90 -68 95 -73 6 -4
39 -30 75 -57 36 -27 70 -54 77 -60 23 -19 38 -31 118 -90 44 -33 82 -62 85
-65 3 -4 32 -26 65 -51 33 -24 62 -47 63 -51 2 -5 8 -8 13 -8 5 0 18 -8 28
-18 62 -55 77 -55 119 1 490 660 805 1204 1084 1877 264 636 470 1393 552
2030 18 136 36 294 41 360 4 41 8 85 10 97 19 123 28 898 13 1173 -7 121 -30
383 -43 486 -11 86 -16 124 -30 229 -9 61 -18 121 -20 135 -3 14 -12 66 -21
115 -198 1136 -664 2271 -1328 3235 -148 215 -267 370 -285 370 -9 0 -28 -8
-41 -17z"/>
<path d="M3703 15293 c-17 -6 -194 -249 -320 -438 -385 -577 -694 -1196 -926
-1855 -148 -418 -281 -934 -352 -1365 -9 -55 -18 -111 -21 -125 -4 -23 -39
-297 -48 -380 -3 -19 -7 -73 -11 -120 -4 -47 -8 -95 -10 -107 -18 -118 -27
-951 -12 -1123 4 -41 9 -111 12 -155 9 -122 20 -244 30 -315 2 -14 6 -52 10
-85 47 -449 205 -1135 380 -1645 197 -575 505 -1226 791 -1671 24 -38 44 -74
44 -79 0 -6 5 -10 10 -10 6 0 10 -4 10 -9 0 -30 422 -621 443 -621 9 0 181
125 213 155 6 5 27 21 47 35 20 14 37 28 37 33 0 4 5 7 11 7 7 0 19 8 28 18 9
9 24 22 32 27 20 12 352 267 359 275 3 3 20 16 38 29 21 15 32 30 29 40 -2 9
-45 70 -94 136 -133 176 -320 460 -441 669 -200 345 -396 760 -522 1106 -23
63 -46 124 -50 135 -13 29 -107 322 -124 386 -51 186 -67 248 -94 364 -32 132
-57 250 -72 340 -5 28 -16 88 -24 135 -16 94 -53 371 -61 465 -3 33 -7 74 -10
90 -26 180 -27 1106 0 1240 2 11 7 54 10 95 3 41 13 127 21 190 8 63 17 131
20 150 20 155 85 483 135 685 233 938 642 1811 1206 2573 46 61 83 116 83 120
0 8 -37 42 -45 42 -3 0 -15 9 -27 19 -45 38 -67 56 -94 76 -32 23 -94 71 -110
84 -6 5 -34 25 -62 46 -29 20 -52 41 -52 47 0 5 -4 7 -9 3 -6 -3 -13 1 -18 8
-4 7 -24 24 -43 37 -19 13 -37 27 -40 30 -3 3 -52 41 -110 84 -58 44 -107 82
-110 85 -8 9 -69 51 -72 50 -2 0 -9 -3 -15 -6z"/>
<path d="M10183 14983 c3 -5 -35 -9 -84 -10 -49 0 -95 -5 -102 -10 -6 -4 -33
-8 -59 -7 -27 0 -48 -2 -48 -6 0 -4 -16 -6 -35 -5 -19 1 -35 -2 -35 -6 0 -4
-10 -5 -22 -1 -11 3 -19 1 -16 -4 4 -5 -15 -10 -40 -10 -26 -1 -78 -10 -117
-19 -38 -9 -80 -18 -92 -19 -12 -1 -25 -5 -29 -9 -4 -4 -20 -7 -36 -7 -18 0
-27 -4 -23 -10 4 -7 -3 -8 -21 -4 -18 5 -25 3 -20 -4 3 -6 -1 -9 -11 -7 -10 1
-24 -2 -30 -8 -7 -5 -13 -6 -13 -1 0 4 -7 -1 -15 -12 -8 -10 -15 -15 -15 -11
0 5 -13 -1 -29 -12 -16 -12 -34 -21 -40 -21 -6 0 -10 -6 -8 -12 1 -7 -4 -12
-11 -10 -8 1 -16 -7 -19 -18 -3 -11 -12 -20 -20 -20 -8 0 -12 -4 -8 -9 3 -5
-2 -17 -11 -25 -8 -9 -12 -16 -7 -16 4 0 3 -4 -2 -8 -13 -9 -36 -59 -42 -92
-2 -14 -10 -37 -18 -53 -7 -15 -9 -25 -4 -22 11 7 12 -8 2 -19 -5 -4 -9 -16
-9 -27 -1 -10 -2 -28 -3 -40 -1 -13 -5 -18 -13 -13 -10 5 -10 4 -1 -6 8 -9 9
-19 2 -32 -7 -12 -6 -18 1 -18 7 0 8 -6 1 -19 -6 -10 -7 -21 -4 -25 3 -3 1 -6
-5 -6 -6 0 -9 -9 -7 -19 4 -23 -19 -46 -36 -35 -7 4 -9 3 -5 -4 4 -7 -7 -13
-29 -18 -19 -3 -38 -11 -41 -16 -4 -6 -10 -5 -15 3 -7 11 -9 11 -9 1 0 -7 -5
-10 -10 -7 -6 3 -13 0 -16 -9 -4 -9 -14 -13 -31 -10 -15 3 -22 1 -18 -6 4 -6
-6 -10 -25 -10 -17 0 -29 -4 -25 -9 3 -6 -3 -9 -12 -9 -10 0 -31 -5 -48 -12
-16 -7 -33 -13 -37 -12 -5 1 -8 -2 -8 -8 0 -5 -7 -7 -15 -4 -8 4 -15 1 -15 -5
0 -6 -9 -11 -20 -11 -11 0 -20 -4 -20 -9 0 -6 -9 -8 -20 -6 -11 2 -18 0 -15
-6 4 -5 -1 -9 -10 -9 -9 0 -30 -8 -48 -17 -18 -9 -38 -18 -46 -19 -8 -2 -18
-9 -22 -16 -5 -7 -9 -9 -9 -4 0 4 -11 1 -25 -8 -14 -9 -25 -13 -25 -9 0 5 -4
4 -8 -2 -4 -5 -29 -21 -57 -35 -27 -13 -53 -28 -56 -33 -3 -5 -9 -8 -13 -7
-13 2 -76 -32 -76 -42 0 -5 -4 -7 -9 -4 -5 3 -20 -3 -34 -14 -14 -11 -28 -20
-32 -20 -4 0 -20 -9 -36 -21 -16 -11 -29 -17 -29 -12 0 4 -5 0 -11 -9 -5 -10
-17 -18 -24 -18 -8 0 -15 -5 -15 -11 0 -5 -4 -8 -9 -5 -5 3 -12 -1 -15 -10 -3
-8 -10 -13 -15 -9 -6 3 -14 -3 -20 -12 -6 -10 -11 -15 -11 -11 0 4 -8 1 -17
-7 -10 -8 -22 -15 -26 -14 -5 0 -16 -8 -25 -18 -9 -11 -33 -29 -52 -41 -20
-11 -47 -30 -60 -41 -14 -12 -29 -24 -35 -29 -5 -4 -28 -20 -50 -35 -22 -15
-35 -27 -30 -27 6 0 -5 -8 -22 -16 -18 -9 -30 -20 -27 -25 3 -5 -1 -9 -9 -9
-7 0 -24 -11 -37 -25 -12 -13 -27 -22 -33 -18 -6 3 -8 2 -5 -3 3 -5 -5 -18
-19 -29 -13 -11 -49 -44 -80 -72 -30 -29 -60 -53 -65 -53 -5 0 -8 -3 -6 -7 4
-8 -69 -83 -74 -78 -2 2 -14 -12 -28 -31 -14 -18 -31 -34 -39 -34 -8 0 -11 -3
-8 -6 4 -4 -18 -32 -48 -62 -30 -30 -52 -59 -49 -63 3 -5 -2 -9 -10 -9 -9 0
-16 -4 -16 -9 0 -4 -10 -19 -22 -33 -13 -13 -34 -39 -48 -57 -14 -18 -31 -39
-37 -46 -7 -8 -13 -17 -13 -22 0 -4 -9 -14 -20 -21 -11 -7 -20 -19 -20 -27 0
-8 -4 -15 -8 -15 -4 0 -19 -18 -32 -39 -14 -21 -29 -36 -34 -33 -5 3 -6 0 -2
-6 3 -6 2 -13 -4 -17 -6 -4 -7 -12 -4 -18 4 -7 4 -9 -1 -5 -8 8 -55 -53 -55
-71 0 -6 -4 -11 -10 -11 -5 0 -10 -7 -10 -15 0 -9 -7 -18 -15 -21 -8 -4 -15
-12 -15 -19 0 -7 -7 -18 -15 -25 -8 -7 -13 -16 -10 -20 3 -5 1 -11 -4 -14 -5
-4 -26 -37 -47 -74 -20 -37 -41 -68 -46 -70 -4 -2 -8 -12 -8 -23 0 -11 -6 -22
-13 -25 -7 -2 -13 -13 -14 -24 -1 -11 -9 -27 -17 -36 -9 -8 -16 -22 -16 -29 0
-7 -7 -20 -15 -29 -9 -8 -14 -17 -13 -19 4 -5 -46 -111 -55 -115 -4 -2 -5 -8
-1 -13 3 -5 0 -9 -7 -9 -7 0 -9 -3 -6 -7 4 -3 0 -17 -8 -30 -9 -13 -13 -23
-10 -23 4 0 0 -12 -9 -27 -23 -45 -56 -130 -56 -147 0 -9 -4 -16 -10 -16 -5 0
-10 -9 -10 -19 0 -11 -5 -23 -10 -26 -6 -4 -8 -11 -4 -16 3 -5 1 -15 -4 -22
-6 -7 -11 -16 -12 -22 -2 -5 -4 -14 -5 -20 -9 -31 -19 -71 -19 -80 -1 -5 -5
-13 -11 -17 -5 -4 -10 -15 -10 -24 0 -19 -13 -22 -108 -26 -38 -1 -70 -6 -73
-10 -2 -3 -14 -5 -25 -3 -11 2 -32 -1 -47 -6 -15 -6 -40 -12 -57 -14 -16 -2
-37 -5 -45 -8 -8 -3 -25 -8 -37 -12 -13 -4 -23 -11 -23 -16 0 -5 -7 -6 -15 -3
-8 4 -15 1 -15 -7 0 -7 -3 -9 -6 -6 -4 3 -18 -3 -32 -13 -13 -11 -29 -20 -33
-20 -11 0 -49 -37 -49 -48 0 -5 -9 -17 -20 -27 -11 -10 -20 -24 -20 -32 0 -7
-4 -13 -10 -13 -5 0 -9 -3 -8 -7 4 -14 -13 -53 -21 -49 -6 4 -10 -13 -11 -57
-1 -9 -5 -15 -11 -12 -5 4 -9 -5 -9 -19 0 -14 -4 -26 -9 -26 -4 0 -7 -11 -6
-25 2 -14 -1 -25 -7 -25 -6 0 -8 -11 -6 -25 3 -13 2 -26 -2 -27 -7 -3 -20 -72
-24 -128 -1 -14 -5 -31 -9 -37 -4 -6 -3 -15 3 -18 8 -5 6 -15 -5 -32 -10 -14
-12 -22 -6 -19 15 10 14 -7 -1 -23 -11 -10 -9 -11 7 -5 16 6 18 5 8 -7 -7 -7
-13 -28 -13 -47 0 -18 -5 -42 -10 -53 -6 -10 -7 -19 -2 -19 5 0 9 -7 9 -15 0
-8 -4 -12 -9 -9 -11 7 -10 -7 1 -26 6 -8 7 -19 3 -25 -4 -5 -8 -43 -8 -83 -1
-40 -4 -79 -7 -87 -3 -7 -1 -16 6 -19 9 -3 8 -5 -1 -5 -7 -1 -11 -5 -8 -9 2
-4 6 -55 7 -112 2 -61 7 -108 13 -112 8 -5 7 -8 -1 -8 -8 0 -9 -9 -3 -30 6
-22 5 -28 -2 -24 -8 5 -9 1 -3 -12 4 -10 9 -28 10 -40 1 -11 5 -25 9 -32 4 -7
3 -12 -3 -12 -7 0 -7 -8 -1 -24 5 -13 6 -27 2 -31 -3 -3 0 -10 8 -15 8 -6 10
-10 4 -10 -6 0 -10 -10 -8 -22 1 -13 3 -23 4 -23 2 0 12 -95 13 -132 1 -18 5
-33 8 -33 7 0 23 -75 22 -97 0 -7 3 -13 9 -13 5 0 8 -6 6 -12 -1 -7 3 -23 10
-35 7 -13 9 -23 5 -23 -4 0 -1 -5 7 -10 13 -9 13 -10 0 -10 -11 0 -12 -3 -3
-8 6 -4 23 -31 36 -59 26 -56 95 -145 107 -138 4 3 10 -1 13 -8 3 -7 23 -19
46 -27 23 -7 41 -17 41 -22 0 -4 3 -7 8 -6 14 3 62 -14 62 -22 0 -5 15 -7 33
-6 17 2 37 0 42 -4 12 -9 87 -19 168 -22 31 -1 57 -6 57 -11 0 -4 6 -5 13 0
22 14 44 13 45 -2 1 -8 3 -22 4 -30 1 -8 5 -15 10 -15 5 0 7 -4 4 -8 -3 -5 2
-21 9 -36 8 -16 12 -32 9 -37 -3 -5 -1 -9 5 -9 5 0 8 -9 6 -20 -2 -13 2 -20
11 -20 8 0 12 -5 9 -10 -4 -6 -2 -16 3 -23 5 -7 8 -20 7 -29 -2 -11 3 -18 11
-18 9 0 13 -4 10 -8 -2 -4 6 -33 18 -65 13 -31 21 -59 18 -62 -3 -3 0 -5 7 -5
7 0 11 -6 8 -14 -3 -8 1 -17 8 -20 9 -3 12 -12 8 -22 -4 -11 -2 -15 4 -11 7 4
13 -7 17 -28 4 -19 12 -35 18 -35 6 0 8 -3 5 -7 -4 -3 1 -15 10 -26 13 -15 14
-18 3 -12 -9 5 -8 0 4 -13 11 -12 15 -22 11 -22 -5 0 0 -7 11 -16 10 -8 12
-12 4 -8 -8 5 -5 -4 8 -20 12 -16 22 -33 22 -38 0 -4 11 -26 24 -47 14 -21 22
-42 19 -45 -4 -3 -2 -6 3 -6 6 0 16 -16 24 -35 8 -19 17 -35 22 -35 4 0 8 -7
8 -16 0 -8 5 -12 10 -9 6 3 10 -3 10 -14 0 -11 7 -26 15 -34 8 -8 11 -17 8
-21 -4 -3 -1 -6 6 -6 7 0 10 -4 7 -9 -3 -5 1 -11 9 -15 8 -3 15 -12 15 -19 0
-8 12 -27 27 -43 15 -16 26 -30 26 -31 -4 -10 11 -42 18 -37 5 3 9 -2 9 -10 0
-9 5 -16 10 -16 6 0 10 -7 10 -15 0 -8 5 -15 10 -15 6 0 10 -7 10 -15 0 -8 4
-15 8 -15 4 0 16 -14 26 -30 9 -17 29 -43 44 -57 15 -15 25 -27 22 -28 -2 0 2
-10 11 -22 9 -13 19 -20 22 -16 4 3 7 0 7 -8 0 -8 18 -34 40 -59 22 -24 40
-48 40 -53 0 -4 5 -5 10 -2 6 3 10 0 10 -7 0 -8 27 -42 60 -76 33 -35 60 -67
60 -72 0 -6 7 -10 15 -10 8 0 15 -4 15 -8 0 -15 37 -52 44 -45 3 3 6 -1 6 -10
0 -9 3 -17 8 -17 4 0 44 -36 90 -80 46 -44 85 -80 87 -80 2 0 19 -15 37 -32
19 -18 49 -44 68 -58 18 -14 44 -35 56 -48 13 -12 26 -22 29 -22 3 0 18 -11
32 -24 15 -14 30 -23 34 -20 4 2 10 -5 14 -16 3 -11 9 -19 13 -19 18 3 35 -2
29 -8 -4 -3 11 -17 33 -30 22 -13 40 -29 40 -34 0 -6 4 -8 9 -5 5 3 20 -3 34
-14 14 -11 30 -20 35 -20 5 0 12 -7 16 -15 3 -8 12 -15 21 -15 8 0 15 -4 15
-10 0 -5 6 -10 14 -10 8 0 16 -4 18 -9 2 -5 10 -11 18 -13 8 -2 23 -11 34 -20
10 -10 23 -15 28 -12 4 3 8 -2 8 -11 0 -9 5 -13 10 -10 6 3 17 -1 26 -9 8 -9
22 -16 30 -16 8 0 14 -5 14 -11 0 -5 5 -7 10 -4 6 3 10 1 10 -5 0 -6 4 -9 9
-6 5 4 11 2 13 -2 4 -11 118 -72 135 -72 8 0 12 -4 9 -8 -2 -4 5 -9 17 -9 12
-1 23 -7 25 -13 2 -5 12 -10 23 -10 10 0 19 -4 19 -10 0 -5 9 -10 20 -10 11 0
20 -5 20 -12 0 -6 3 -9 6 -5 4 3 28 -5 55 -18 27 -14 55 -25 64 -25 8 0 15 -5
15 -10 0 -6 3 -9 8 -9 4 1 10 0 15 -1 4 -1 10 -3 15 -5 17 -5 48 -17 65 -26
10 -5 23 -7 29 -3 6 4 8 3 5 -3 -4 -7 8 -14 31 -18 20 -4 42 -10 47 -15 9 -7
87 -32 107 -34 3 -1 10 -4 14 -8 4 -5 16 -8 26 -8 23 0 48 -23 53 -48 2 -9 4
-17 5 -17 1 0 3 -11 5 -25 7 -49 14 -83 19 -88 3 -3 1 -11 -4 -17 -8 -9 -5
-15 7 -19 15 -6 15 -8 3 -16 -9 -6 -10 -10 -3 -10 6 0 9 -8 6 -19 -3 -10 0
-22 7 -26 8 -5 8 -10 0 -20 -8 -9 -8 -15 0 -20 5 -3 10 -17 10 -30 0 -13 5
-27 10 -30 6 -4 8 -10 5 -15 -3 -5 -1 -11 5 -15 6 -4 8 -11 5 -16 -4 -5 -1 -9
4 -9 6 0 11 -5 11 -11 0 -5 -6 -7 -12 -4 -7 4 -4 -2 8 -12 11 -10 20 -26 18
-36 -1 -9 2 -15 7 -11 5 3 9 1 9 -5 0 -16 89 -101 106 -101 9 0 12 -5 8 -12
-5 -8 -2 -9 9 -5 10 3 17 2 17 -3 0 -6 7 -10 15 -10 8 0 15 -4 15 -9 0 -5 8
-8 18 -7 9 2 19 0 22 -4 3 -5 19 -10 35 -14 51 -9 80 -19 87 -30 5 -7 8 -7 8
2 0 8 5 10 13 5 15 -10 35 -14 70 -16 15 -1 27 -5 27 -9 0 -5 18 -8 41 -8 22
0 38 -4 35 -8 -3 -5 13 -8 34 -6 22 1 38 -1 36 -4 -2 -4 17 -7 42 -6 26 0 49
-3 52 -7 3 -4 25 -8 50 -10 25 -2 48 -8 52 -14 5 -6 8 -5 8 3 0 8 5 10 13 5
12 -8 95 -14 170 -13 22 1 46 -5 55 -12 12 -10 14 -10 8 0 -9 15 25 17 41 1 8
-8 13 -7 18 2 6 8 4 10 -5 4 -9 -5 -11 -4 -6 4 4 6 12 8 18 5 9 -6 40 -6 158
-1 25 1 51 6 59 11 10 7 12 6 6 -4 -6 -10 -4 -11 6 -4 8 4 23 9 34 10 73 8
122 18 134 28 11 8 13 8 7 -1 -4 -7 -2 -13 3 -13 6 0 11 4 11 9 0 5 17 8 38 6
20 -1 42 1 47 6 6 4 26 10 45 13 19 3 51 8 70 12 19 3 40 7 45 8 6 1 15 5 21
9 6 3 25 8 43 9 17 1 31 6 31 10 0 4 9 5 20 3 11 -2 20 1 20 7 0 6 3 9 6 5 4
-3 19 0 34 8 15 8 30 11 34 8 3 -4 6 -2 6 3 0 6 16 16 35 24 19 8 35 17 35 22
0 4 7 8 16 8 11 0 14 5 10 17 -4 10 -4 14 0 10 10 -10 78 69 76 89 0 5 5 16
12 24 7 8 17 29 21 45 12 45 12 45 15 48 2 3 9 45 13 82 2 17 6 36 11 43 4 7
2 12 -6 12 -10 0 -10 2 1 9 8 5 15 28 16 53 2 23 4 43 5 43 1 0 4 13 6 28 1
15 10 41 18 57 9 20 10 28 3 23 -7 -3 -4 3 7 15 10 11 32 24 50 28 17 3 37 11
44 16 6 6 12 8 12 5 0 -4 20 2 44 13 24 10 47 16 50 13 3 -4 6 -1 6 6 0 6 6
11 13 10 6 -1 26 4 42 11 17 7 32 14 35 15 3 1 16 6 30 12 14 6 28 10 31 9 3
0 13 5 22 12 9 8 21 11 27 7 5 -3 10 -1 10 4 0 6 7 11 16 11 8 0 13 4 10 8 -3
5 0 9 7 10 25 2 47 8 54 16 7 6 65 35 83 41 20 6 86 41 88 48 2 4 10 7 17 7 8
0 21 8 31 18 10 9 18 16 18 14 2 -9 56 19 56 29 0 7 3 10 6 6 4 -3 31 9 60 28
30 19 59 35 64 35 6 0 10 5 10 11 0 5 5 7 10 4 6 -3 13 0 16 8 3 9 15 18 27
21 12 3 34 17 50 31 15 14 27 23 27 20 0 -6 19 8 77 55 7 6 15 10 18 10 4 0
26 16 49 35 24 19 48 35 55 35 7 0 10 4 6 9 -3 5 4 12 15 16 11 3 20 11 20 16
0 5 5 9 11 9 6 0 26 15 45 33 19 17 39 32 44 32 6 0 11 5 12 10 1 6 21 25 45
43 24 18 43 38 43 44 0 6 3 9 6 5 3 -3 34 23 69 58 35 35 66 61 69 57 3 -3 6
2 6 12 0 9 5 14 10 11 6 -3 10 -2 10 3 0 14 36 52 44 45 3 -3 6 -2 6 4 0 6 29
41 65 78 36 38 65 72 65 76 0 5 8 9 18 9 13 0 14 2 4 9 -10 6 -8 10 9 14 13 4
20 9 17 13 -4 3 5 18 20 34 44 45 72 81 72 91 0 6 5 7 10 4 6 -3 10 1 10 9 0
9 5 16 12 16 6 0 8 3 5 7 -4 3 2 12 13 20 11 8 20 20 20 28 0 7 3 15 8 17 12
5 62 76 62 87 0 6 5 11 10 11 6 0 14 8 17 18 4 9 15 26 25 36 9 10 15 22 13
26 -3 5 2 10 10 14 8 3 15 12 15 20 0 7 7 17 16 20 9 4 14 9 11 13 -3 3 7 25
23 48 16 23 26 45 23 49 -4 3 -1 6 5 6 7 0 22 22 34 50 12 27 25 47 30 44 4
-3 8 2 8 11 0 8 11 33 25 55 14 22 23 40 19 40 -3 0 2 7 10 16 9 8 14 19 11
24 -3 5 -1 11 5 15 6 3 18 23 27 43 9 20 17 39 18 42 2 3 6 15 10 28 4 12 12
22 17 22 5 0 6 5 3 10 -3 6 -1 10 5 10 6 0 9 4 5 9 -3 5 0 15 7 23 7 7 13 19
14 26 2 29 5 33 16 26 6 -4 8 -3 5 3 -4 6 1 28 10 49 10 22 18 44 19 49 0 6 8
26 16 45 28 64 31 75 29 88 -1 6 3 12 9 12 6 0 10 6 8 13 -1 6 3 21 9 32 6 11
11 23 12 28 1 4 2 9 2 12 1 3 3 10 4 15 1 6 3 11 5 13 1 1 3 10 5 20 2 11 6
21 9 24 2 3 53 6 113 7 59 1 113 4 118 7 6 3 30 7 55 8 25 2 52 7 61 12 9 4
26 7 38 4 11 -2 23 0 26 6 4 5 15 9 26 9 10 0 19 4 19 8 0 5 7 9 15 10 8 1 22
3 30 4 8 1 15 4 15 8 0 4 18 15 40 25 40 18 100 76 100 96 0 6 5 7 12 3 6 -4
8 -3 4 4 -3 6 1 18 10 26 8 9 12 16 8 16 -3 0 -1 7 6 15 6 8 8 20 4 26 -4 8
-3 9 4 5 8 -5 12 0 12 13 0 12 4 21 8 21 4 0 8 10 9 22 1 11 7 24 14 28 6 4 8
13 5 19 -4 6 -4 11 1 11 4 0 9 11 9 25 1 14 5 33 9 43 8 17 17 64 18 95 1 9 4
17 7 17 3 0 6 17 7 38 2 20 4 63 6 95 2 31 7 60 10 64 4 3 2 12 -4 20 -9 10
-8 13 2 13 11 0 11 2 -1 10 -8 5 -10 10 -4 10 6 0 11 6 11 13 0 7 3 25 7 41 5
21 4 26 -6 20 -10 -6 -10 -4 -2 7 12 16 12 29 1 46 -4 6 -3 14 3 18 5 3 9 20
10 38 0 18 0 70 1 117 1 47 1 108 -1 136 -2 27 0 55 4 62 4 7 3 12 -1 12 -5 0
-8 29 -7 65 0 41 -3 65 -10 65 -6 0 -4 5 4 10 8 5 10 10 4 10 -6 0 -10 12 -10
28 1 15 -2 35 -7 46 -6 13 -6 16 2 12 8 -5 8 0 3 16 -5 13 -7 35 -6 51 2 15
-1 25 -7 22 -5 -4 -5 3 0 18 5 13 6 30 1 37 -5 7 -7 22 -5 32 2 10 -2 18 -8
18 -7 0 -6 4 3 10 8 5 10 10 3 10 -6 0 -10 11 -8 25 1 14 -2 28 -6 31 -5 3 -9
18 -9 35 0 16 -4 29 -9 29 -4 0 -8 8 -8 18 1 22 -23 103 -36 119 -5 7 -6 21
-3 30 4 10 4 14 0 10 -7 -7 -44 45 -44 63 0 6 -8 18 -17 29 -10 10 -27 30 -38
44 -11 14 -26 26 -32 27 -7 0 -13 4 -13 9 0 5 -13 12 -30 16 -16 4 -30 11 -30
16 0 6 -4 7 -10 4 -5 -3 -10 -2 -10 4 0 9 -56 27 -72 23 -5 -1 -8 2 -8 8 0 5
-16 8 -36 6 -20 -1 -38 2 -40 9 -3 7 -23 10 -49 9 -26 -1 -43 2 -40 7 4 5 -4
8 -17 8 -13 -1 -67 0 -120 1 -77 1 -98 5 -98 16 0 8 -4 14 -10 14 -5 0 -10 14
-10 30 0 17 -5 30 -12 30 -6 0 -9 3 -5 6 3 3 -3 28 -13 54 -10 26 -16 51 -13
54 4 3 0 6 -7 6 -7 0 -11 3 -7 6 3 4 0 19 -9 35 -8 16 -12 29 -8 29 3 0 -1 11
-10 25 -9 13 -17 32 -19 42 -2 10 -11 32 -20 49 -9 17 -13 34 -10 38 4 3 1 6
-5 6 -6 0 -9 9 -7 20 2 11 0 18 -6 15 -5 -4 -9 3 -9 14 0 12 -5 21 -12 21 -6
0 -8 3 -5 6 3 4 0 16 -8 28 -8 11 -15 28 -15 38 0 10 -4 18 -10 18 -5 0 -15
18 -21 40 -7 22 -16 40 -21 40 -5 0 -6 5 -3 10 3 6 1 10 -6 10 -7 0 -10 3 -6
6 3 4 -1 13 -9 21 -8 8 -12 19 -9 24 4 5 2 9 -3 9 -9 0 -25 37 -23 53 1 4 -3
7 -8 7 -5 0 -14 14 -21 30 -7 17 -17 30 -22 30 -5 0 -7 4 -3 9 3 5 -1 16 -9
24 -8 8 -12 17 -9 21 4 3 1 6 -5 6 -7 0 -12 7 -12 15 0 8 -4 15 -10 15 -5 0
-10 4 -10 9 0 16 -67 120 -74 114 -3 -3 -6 3 -6 15 0 12 -4 22 -10 22 -5 0
-10 7 -10 16 0 8 -4 12 -10 9 -5 -3 -10 2 -10 12 0 10 -9 25 -19 33 -11 7 -18
17 -15 22 3 4 -2 11 -10 14 -9 3 -16 12 -16 19 0 6 -13 26 -29 43 -16 16 -27
33 -24 36 4 3 1 6 -5 6 -5 0 -20 15 -31 33 -11 19 -31 45 -43 59 -41 45 -68
78 -68 83 0 10 -40 45 -52 45 -6 0 -8 3 -5 7 4 4 -6 20 -22 37 -16 17 -56 58
-88 91 -32 33 -57 63 -56 67 2 5 -1 8 -7 8 -5 0 -34 24 -64 54 -30 29 -58 51
-61 48 -3 -3 -5 2 -5 11 0 9 -5 17 -10 17 -6 0 -29 18 -51 40 -22 22 -42 40
-45 40 -5 0 -46 34 -87 73 -17 15 -36 27 -44 27 -8 0 -12 3 -10 8 3 4 -13 18
-34 32 -21 13 -39 28 -39 32 0 4 -5 8 -11 8 -7 0 -20 9 -30 21 -9 11 -20 19
-22 17 -3 -2 -17 7 -31 19 -14 13 -26 20 -26 15 0 -4 -7 2 -15 12 -8 11 -15
16 -15 12 0 -4 -7 -1 -15 6 -31 28 -44 38 -51 38 -4 0 -22 11 -39 25 -18 13
-35 21 -39 18 -3 -4 -6 -1 -6 5 0 7 -7 12 -15 12 -8 0 -15 5 -15 10 0 6 -7 10
-15 10 -8 0 -15 5 -15 12 0 6 -3 9 -6 6 -3 -4 -22 5 -41 18 -20 13 -42 24 -49
24 -8 0 -14 4 -14 8 0 5 -16 14 -35 22 -19 8 -35 18 -35 22 0 5 -4 7 -9 4 -5
-3 -14 1 -21 9 -7 8 -16 12 -21 9 -5 -3 -9 0 -9 5 0 6 -3 11 -7 10 -16 -2 -53
14 -53 22 0 5 -3 8 -7 8 -21 -3 -33 2 -27 13 4 6 3 8 -3 5 -5 -3 -22 1 -37 9
-16 7 -35 14 -42 14 -8 0 -14 5 -14 11 0 5 -4 8 -9 4 -5 -3 -12 -1 -15 4 -3 5
-18 12 -33 16 -16 3 -37 14 -47 23 -11 9 -16 11 -12 4 4 -7 -9 -3 -29 8 -20
11 -40 18 -46 15 -5 -4 -9 -1 -9 6 0 7 -3 9 -7 6 -3 -4 -12 -2 -19 3 -6 6 -22
13 -35 15 -12 3 -26 10 -31 17 -6 10 -8 10 -8 -1 0 -11 -4 -11 -18 2 -10 10
-22 14 -25 11 -4 -4 -13 -1 -22 6 -8 7 -15 9 -15 5 0 -4 -6 -2 -13 4 -8 6 -17
8 -20 4 -4 -3 -7 -1 -7 6 0 7 -4 10 -9 6 -14 -8 -30 27 -33 73 -1 6 -6 12 -12
12 -6 0 -4 5 4 10 8 5 10 10 4 10 -7 0 -12 15 -13 33 -1 56 -13 112 -25 119
-7 5 -8 8 0 8 6 0 11 7 11 15 0 8 -5 15 -10 15 -6 0 -8 3 -4 6 3 3 -1 24 -9
46 -7 22 -12 44 -9 48 3 4 -2 13 -10 20 -8 7 -15 19 -15 26 0 8 -5 14 -11 14
-5 0 -8 4 -5 9 3 4 -3 19 -14 31 -11 12 -17 27 -13 33 3 5 2 7 -4 4 -5 -4 -19
4 -31 16 -28 29 -52 49 -52 42 0 -3 -10 4 -22 15 -12 11 -28 18 -35 16 -7 -3
-13 -1 -13 5 0 6 -4 8 -9 5 -4 -3 -16 1 -27 8 -10 8 -24 12 -31 9 -7 -3 -13
-1 -13 4 0 5 -12 10 -26 11 -15 1 -32 6 -38 10 -6 5 -21 7 -33 6 -13 0 -23 4
-23 10 0 6 -5 4 -10 -4 -7 -12 -10 -12 -10 -1 0 7 -6 11 -14 8 -8 -3 -17 -3
-20 1 -4 3 -12 7 -19 8 -7 1 -25 5 -42 8 -16 4 -46 9 -65 12 -19 3 -47 7 -61
10 -70 11 -117 17 -146 18 -18 0 -33 4 -33 7 0 6 1 6 -92 9 -43 2 -65 6 -61
13 4 6 1 7 -8 2 -21 -14 -59 -15 -59 -2 0 8 -3 8 -8 2 -6 -9 -26 -12 -34 -5
-9 6 -46 5 -42 -2 7 -11 -3 -10 -28 3 -11 6 -18 7 -15 2z m-31 -408 c7 7 168
7 233 0 28 -3 70 -6 95 -8 25 -1 50 -5 55 -8 6 -3 26 -6 45 -7 20 -2 47 -5 60
-8 58 -13 87 -17 112 -18 14 -1 24 -4 21 -8 -2 -5 4 -8 14 -9 10 0 27 -3 38
-5 11 -3 27 -6 35 -6 8 -1 18 -6 22 -12 5 -7 8 -6 8 3 0 10 5 10 25 -3 14 -9
29 -15 34 -12 13 8 52 -24 50 -42 -1 -10 0 -19 1 -22 4 -11 10 -47 15 -90 3
-25 8 -58 11 -75 4 -16 6 -39 6 -50 -1 -10 4 -25 10 -32 8 -10 7 -13 -3 -13
-9 0 -10 -3 -4 -8 6 -4 12 -23 14 -42 1 -19 7 -36 11 -38 5 -2 6 -10 3 -18 -3
-8 0 -21 7 -29 6 -8 8 -20 4 -26 -4 -8 -3 -9 4 -5 7 4 12 1 12 -8 0 -9 4 -16
10 -16 5 0 7 -7 4 -15 -4 -9 0 -15 10 -15 8 0 20 -9 26 -20 6 -11 15 -18 21
-15 5 4 9 2 9 -4 0 -9 65 -37 100 -43 8 -2 17 -6 20 -10 3 -4 17 -10 30 -12
14 -2 25 -5 25 -6 0 -2 37 -11 58 -14 10 -1 22 -7 25 -12 4 -5 14 -9 22 -9 8
0 18 -3 21 -8 3 -4 16 -9 27 -10 12 -1 22 -5 22 -10 0 -4 4 -6 9 -2 5 3 13 0
16 -6 4 -5 13 -8 21 -5 8 3 14 2 14 -2 0 -4 11 -12 25 -19 14 -6 22 -7 19 -1
-3 5 3 4 15 -4 12 -7 21 -16 21 -20 0 -4 6 -5 14 -2 8 3 17 0 21 -5 3 -6 11
-9 16 -6 5 4 9 1 9 -4 0 -6 6 -11 13 -11 19 0 67 -24 67 -33 0 -5 4 -6 9 -2 5
3 12 1 16 -5 4 -6 11 -8 16 -5 5 4 9 1 9 -4 0 -6 7 -11 15 -11 8 0 15 -5 15
-11 0 -5 4 -8 9 -4 5 3 12 1 16 -5 4 -6 11 -8 16 -5 5 4 9 2 9 -3 0 -4 16 -14
35 -22 19 -8 35 -17 35 -22 0 -4 9 -8 20 -8 11 0 20 -4 20 -10 0 -5 7 -10 15
-10 8 0 15 -5 15 -12 0 -6 3 -9 6 -6 5 6 60 -26 90 -51 7 -6 15 -7 18 -4 3 4
6 1 6 -5 0 -7 7 -12 15 -12 9 0 18 -7 21 -15 4 -8 10 -13 14 -10 4 2 18 -5 32
-18 13 -12 41 -31 61 -42 20 -11 37 -23 37 -28 0 -4 4 -6 8 -3 5 3 15 -4 22
-15 8 -10 20 -19 26 -19 7 0 22 -12 33 -26 12 -15 21 -24 21 -20 0 6 29 -16
62 -46 10 -10 18 -16 18 -13 0 5 51 -38 94 -80 12 -12 26 -21 31 -22 6 0 16
-11 22 -24 7 -13 13 -20 13 -15 0 5 18 -10 41 -32 22 -23 45 -42 51 -42 6 0 9
-2 6 -5 -3 -3 35 -45 84 -94 48 -49 88 -94 88 -100 0 -5 9 -13 21 -16 11 -4
18 -9 15 -12 -2 -3 6 -16 20 -30 13 -13 24 -28 24 -34 0 -6 4 -8 9 -4 5 3 12
-3 15 -12 3 -10 20 -33 36 -50 17 -18 28 -33 24 -33 -4 0 3 -8 14 -19 12 -10
22 -22 22 -25 0 -4 6 -13 13 -21 24 -25 42 -50 56 -78 8 -15 18 -27 23 -27 4
0 8 -5 8 -11 0 -7 10 -20 22 -30 11 -11 18 -19 14 -19 -9 0 26 -53 41 -63 8
-5 11 -12 8 -18 -4 -5 -2 -9 3 -9 5 0 12 -8 15 -17 7 -22 37 -72 55 -91 7 -7
10 -18 7 -23 -4 -5 -1 -9 4 -9 6 0 11 -6 11 -14 0 -7 7 -19 15 -26 9 -7 13
-15 11 -18 -3 -2 2 -11 10 -19 8 -8 12 -19 9 -24 -4 -5 -3 -9 2 -9 8 0 35 -54
33 -65 0 -3 6 -13 15 -21 8 -9 13 -19 10 -24 -3 -5 -2 -10 2 -12 13 -5 58
-105 55 -120 -1 -5 3 -8 8 -8 6 0 10 -9 10 -19 0 -11 5 -23 10 -26 6 -4 8 -10
5 -15 -3 -4 2 -13 10 -20 8 -7 15 -22 15 -34 0 -12 5 -27 12 -34 7 -7 9 -12 5
-12 -4 0 -2 -10 5 -22 6 -13 13 -27 14 -33 1 -5 9 -29 18 -52 8 -24 13 -43 9
-43 -3 0 -1 -6 5 -12 11 -14 37 -98 34 -110 -1 -5 2 -8 6 -8 4 0 9 -12 10 -27
1 -16 7 -30 12 -31 6 -2 8 -8 5 -13 -6 -9 2 -21 40 -61 11 -11 13 -17 5 -13
-8 5 5 -12 30 -37 25 -24 51 -43 58 -40 6 2 12 -1 12 -8 0 -6 4 -9 9 -5 5 3
13 1 16 -5 5 -8 12 -7 23 2 13 10 14 10 8 0 -6 -10 12 -12 86 -11 167 2 269
-1 264 -9 -2 -4 16 -7 40 -6 24 1 44 -3 44 -8 0 -6 7 -8 15 -4 8 3 15 1 15 -4
0 -6 3 -9 8 -9 4 1 12 1 19 0 15 -1 67 -107 59 -120 -4 -5 -3 -12 2 -15 4 -2
9 -22 10 -42 2 -21 6 -43 11 -49 4 -5 7 -29 6 -52 -1 -23 2 -40 6 -38 4 3 7
-14 7 -36 1 -23 3 -44 6 -47 3 -3 1 -11 -5 -19 -8 -9 -8 -13 -1 -13 6 0 11
-12 11 -27 3 -106 8 -170 14 -180 5 -8 3 -13 -5 -13 -10 0 -10 -2 0 -9 15 -9
15 -20 0 -38 -6 -7 -6 -13 -1 -13 12 0 11 -93 -2 -102 -6 -5 -6 -8 1 -8 12 0
13 -45 1 -56 -4 -4 -2 -13 4 -21 6 -7 7 -13 2 -13 -5 0 -8 -30 -8 -67 0 -38
-2 -72 -4 -77 -5 -10 -11 -77 -14 -138 -1 -21 -4 -38 -7 -38 -3 0 -5 -21 -5
-48 0 -26 -3 -52 -7 -57 -8 -12 -23 -79 -30 -130 -2 -11 -10 -25 -18 -32 -8
-7 -11 -13 -6 -13 6 0 1 -6 -9 -14 -11 -8 -23 -12 -27 -10 -5 3 -8 0 -8 -6 0
-6 -4 -9 -9 -5 -5 3 -12 1 -16 -5 -4 -6 -11 -8 -16 -5 -5 4 -9 2 -9 -2 0 -5
-15 -8 -32 -8 -18 1 -38 -2 -45 -7 -7 -5 -14 -5 -18 2 -3 6 -12 7 -18 3 -19
-12 -36 -12 -43 -2 -4 6 -10 6 -17 1 -7 -5 -66 -9 -132 -8 -68 0 -128 -4 -140
-10 -11 -6 -25 -9 -31 -7 -5 2 -20 -6 -32 -17 -11 -11 -26 -20 -32 -20 -6 0
-9 -4 -6 -9 3 -5 -1 -12 -10 -15 -8 -3 -12 -10 -9 -16 4 -6 -1 -7 -11 -3 -11
4 -15 3 -11 -4 4 -6 0 -18 -8 -26 -8 -9 -15 -23 -15 -31 0 -9 -7 -16 -16 -16
-10 0 -14 -6 -11 -14 3 -8 -1 -17 -9 -20 -9 -3 -13 -10 -9 -15 3 -5 1 -12 -5
-16 -5 -3 -10 -17 -10 -31 0 -13 -5 -24 -11 -24 -5 0 -7 -5 -4 -10 4 -6 3 -16
-2 -23 -11 -14 -38 -98 -35 -109 1 -5 -3 -8 -8 -8 -5 0 -9 -3 -9 -7 1 -5 0
-11 -1 -15 -1 -5 -3 -11 -5 -15 -1 -5 -7 -21 -14 -38 -7 -16 -14 -34 -15 -40
-2 -5 -8 -23 -14 -38 -7 -16 -12 -33 -12 -38 0 -5 -5 -9 -11 -9 -6 0 -9 -6 -6
-14 3 -8 -2 -22 -11 -33 -17 -19 -24 -37 -25 -60 0 -7 -4 -13 -8 -13 -8 0 -24
-40 -21 -52 1 -5 -1 -8 -6 -8 -4 0 -16 -20 -27 -45 -11 -25 -24 -45 -29 -45
-4 0 -6 -6 -3 -14 3 -8 -1 -17 -9 -20 -9 -3 -13 -10 -9 -15 3 -6 -3 -14 -12
-20 -10 -6 -14 -11 -10 -11 5 0 0 -12 -10 -27 -10 -16 -25 -41 -33 -58 -15
-29 -23 -42 -46 -68 -13 -15 -28 -50 -25 -60 1 -5 -3 -6 -8 -3 -5 4 -12 -3
-16 -14 -3 -11 -11 -20 -16 -20 -6 0 -8 -4 -5 -8 3 -5 -6 -20 -20 -35 -13 -14
-24 -31 -24 -37 0 -5 -5 -10 -11 -10 -5 0 -7 -4 -4 -10 3 -5 -1 -10 -10 -10
-9 0 -14 -4 -11 -9 6 -9 -34 -64 -64 -88 -8 -7 -10 -13 -5 -13 6 0 6 -3 -1 -8
-6 -4 -37 -38 -69 -77 -32 -38 -62 -72 -65 -75 -4 -3 -9 -13 -13 -23 -4 -10
-11 -15 -17 -12 -5 3 -10 1 -10 -5 0 -7 -63 -75 -140 -151 -77 -77 -140 -137
-140 -134 0 4 -18 -12 -40 -34 -22 -22 -40 -38 -40 -35 0 3 -13 -7 -30 -23
-40 -39 -58 -53 -65 -53 -3 0 -17 -10 -31 -22 -58 -53 -64 -58 -64 -50 0 4 -6
0 -13 -8 -14 -18 -71 -56 -74 -49 -1 2 -8 -3 -15 -12 -14 -17 -125 -90 -203
-134 -27 -15 -53 -32 -57 -39 -4 -6 -8 -7 -8 -3 0 5 -13 -1 -28 -12 -16 -11
-35 -21 -42 -23 -8 -2 -21 -9 -28 -15 -7 -7 -20 -13 -28 -13 -8 0 -14 -5 -14
-11 0 -5 -4 -8 -8 -5 -5 3 -18 -3 -28 -13 -11 -9 -25 -16 -32 -13 -6 2 -12 -1
-12 -7 0 -6 -7 -11 -15 -11 -8 0 -32 -9 -52 -20 -21 -11 -43 -20 -50 -20 -7 0
-13 -5 -13 -11 0 -6 -7 -9 -15 -5 -8 3 -15 2 -15 -3 0 -10 -48 -25 -69 -22 -7
1 -10 -2 -6 -8 3 -6 3 -11 -2 -12 -23 -2 -49 -9 -68 -17 -46 -22 -103 -41
-109 -35 -3 3 -8 -1 -11 -9 -4 -9 -16 -14 -31 -12 -14 1 -28 -4 -30 -11 -3 -8
-11 -11 -19 -9 -7 3 -22 -6 -33 -20 -11 -14 -25 -26 -31 -26 -6 0 -11 -5 -11
-11 0 -5 -4 -8 -8 -5 -5 3 -18 -4 -30 -14 -12 -11 -28 -20 -37 -20 -9 0 -13
-4 -10 -10 5 -9 -9 -15 -18 -7 -7 5 -66 -67 -61 -75 3 -4 0 -8 -6 -8 -7 0 -9
-7 -6 -15 3 -9 0 -18 -8 -21 -7 -3 -13 -10 -14 -17 0 -7 -4 -25 -7 -42 -4 -16
-7 -37 -8 -45 0 -8 -4 -21 -10 -28 -6 -8 -6 -12 2 -12 8 0 9 -5 1 -19 -5 -11
-10 -31 -10 -45 0 -14 -5 -28 -10 -31 -8 -5 -8 -11 -1 -19 6 -7 8 -15 6 -18
-7 -6 -16 -61 -18 -105 -1 -18 -5 -33 -9 -33 -3 0 -8 -10 -10 -22 -2 -13 -9
-24 -15 -24 -7 -1 -16 -3 -20 -4 -5 -1 -12 -3 -18 -5 -5 -1 -13 -3 -17 -5 -5
-1 -16 -3 -25 -4 -10 -1 -25 -5 -33 -11 -8 -5 -26 -10 -40 -11 -44 -3 -105
-16 -110 -23 -3 -3 -18 -7 -35 -8 -16 -1 -48 -4 -70 -8 -22 -3 -47 -7 -55 -7
-8 0 -19 -4 -25 -7 -5 -3 -34 -6 -62 -6 -29 1 -53 -2 -53 -5 0 -6 -282 -3
-370 4 -30 2 -55 5 -55 6 0 5 -46 12 -87 13 -25 1 -45 4 -43 8 3 3 -10 7 -28
8 -54 3 -57 4 -57 11 0 4 -10 6 -22 5 -13 -1 -27 0 -33 4 -5 3 -14 6 -20 7 -5
1 -19 6 -29 10 -13 5 -17 4 -12 -4 4 -7 -4 -5 -20 3 -15 8 -31 12 -36 9 -4 -3
-8 0 -8 6 0 6 -6 10 -12 8 -7 -1 -26 1 -41 5 -20 6 -27 12 -23 23 3 9 1 12 -4
9 -6 -3 -11 6 -11 22 -1 28 -4 43 -8 53 -2 3 -4 24 -4 47 -1 23 -5 45 -9 49
-4 4 -2 14 5 22 10 13 9 14 -1 8 -10 -6 -13 -3 -12 10 1 11 1 22 0 27 -1 4 -4
16 -5 27 -1 11 -4 21 -5 23 -1 1 -3 13 -4 27 0 14 -5 31 -9 38 -5 7 -3 12 4
12 8 0 9 3 0 13 -6 8 -8 17 -4 20 3 4 1 7 -5 7 -7 0 -12 7 -12 15 0 25 -22 65
-33 58 -6 -3 -7 -1 -3 5 4 7 -2 22 -13 34 -12 12 -21 18 -21 13 0 -4 -8 2 -19
13 -10 12 -22 22 -26 22 -5 0 -23 11 -41 25 -18 14 -37 25 -42 25 -5 0 -15 7
-22 15 -6 8 -15 14 -18 13 -4 0 -9 1 -12 2 -3 1 -13 3 -23 5 -10 2 -26 7 -35
11 -9 4 -21 8 -27 9 -5 0 -19 5 -30 9 -43 17 -50 19 -62 17 -7 -1 -13 3 -13 9
0 6 -4 9 -8 6 -5 -3 -20 1 -35 9 -15 8 -27 12 -27 9 0 -2 -12 4 -27 13 -17 12
-24 13 -19 4 5 -8 -3 -6 -20 5 -15 11 -37 17 -47 16 -11 -2 -16 1 -13 6 5 9
-39 27 -56 24 -5 -1 -8 2 -8 8 0 5 -9 10 -19 10 -11 0 -23 5 -26 10 -4 6 -11
8 -16 5 -5 -4 -9 -1 -9 4 0 6 -6 11 -14 11 -8 0 -21 6 -28 13 -7 7 -20 12 -28
12 -8 0 -24 7 -34 17 -10 10 -23 15 -28 12 -4 -3 -8 0 -8 6 0 6 -4 8 -10 5 -5
-3 -10 -2 -10 2 0 5 -16 15 -35 22 -19 7 -35 17 -35 22 0 5 -9 9 -20 9 -11 0
-20 3 -20 8 0 4 -23 18 -50 31 -28 14 -50 29 -50 33 0 4 -6 8 -14 8 -7 0 -19
7 -26 15 -7 8 -16 12 -21 9 -5 -3 -9 -1 -9 5 0 6 -11 13 -25 17 -14 3 -25 11
-25 18 0 6 -15 18 -32 25 -18 8 -38 20 -44 25 -32 30 -53 44 -58 39 -3 -3 -8
2 -12 11 -3 9 -12 16 -20 16 -8 0 -14 4 -14 8 0 4 -12 15 -27 24 -16 9 -40 28
-55 42 -15 14 -31 26 -36 26 -4 0 -19 13 -32 30 -14 16 -28 29 -32 30 -8 0
-66 51 -124 107 -18 18 -37 33 -43 33 -5 0 -11 9 -14 20 -3 11 -12 20 -21 20
-9 0 -16 5 -16 11 0 6 -19 29 -42 52 -24 22 -42 44 -40 48 1 5 -2 9 -6 9 -11
0 -52 35 -52 44 0 3 -13 19 -30 34 -16 16 -30 35 -30 41 0 7 -4 9 -10 6 -10
-6 -15 9 -10 30 1 6 -1 7 -5 3 -4 -4 -20 7 -36 25 -16 17 -27 33 -24 35 2 2
-8 16 -23 32 -32 33 -58 65 -80 103 -9 15 -20 27 -24 27 -4 0 -8 7 -8 15 0 8
-4 15 -10 15 -5 0 -10 6 -10 14 0 8 -3 16 -7 18 -12 5 -53 66 -53 78 0 5 -4
10 -10 10 -5 0 -10 7 -10 15 0 8 -3 15 -7 15 -5 0 -13 10 -19 23 -33 65 -49
93 -61 105 -7 8 -11 17 -8 22 3 4 -2 10 -10 14 -8 3 -15 15 -15 26 0 11 -3 20
-7 20 -12 0 -33 52 -26 63 3 6 2 7 -3 4 -7 -4 -78 125 -89 163 -1 3 -7 19 -14
35 -7 17 -11 31 -9 31 2 1 -4 10 -13 20 -8 11 -15 26 -14 34 0 8 -5 21 -12 28
-7 7 -13 22 -13 33 0 10 -5 19 -11 19 -6 0 -9 6 -6 13 2 6 -7 36 -20 66 -13
30 -22 60 -19 68 3 8 2 11 -3 8 -5 -3 -12 -1 -16 5 -3 5 -2 10 4 10 6 0 8 7 5
15 -4 8 -9 13 -14 10 -4 -2 -6 7 -4 20 1 14 -2 25 -7 25 -5 0 -9 14 -9 30 0
17 -4 30 -8 30 -8 0 -13 24 -16 72 0 14 -4 24 -8 21 -5 -2 -8 4 -8 14 0 10
-11 31 -25 47 -14 16 -25 26 -25 22 0 -3 -13 0 -30 9 -16 9 -30 13 -30 10 0
-4 -5 -3 -12 1 -6 4 -75 8 -152 8 -78 1 -146 4 -153 9 -6 4 -15 3 -18 -3 -5
-8 -12 -7 -23 2 -13 11 -14 11 -8 0 7 -11 4 -12 -13 -3 -12 7 -25 9 -30 6 -5
-3 -22 0 -38 6 -15 6 -39 13 -53 16 -13 2 -25 5 -25 6 0 1 -13 25 -28 53 -15
28 -24 54 -20 58 3 3 1 17 -6 30 -8 13 -11 30 -9 38 3 7 1 21 -4 31 -9 18 -20
100 -22 170 0 20 -3 37 -6 37 -3 0 -7 42 -9 93 -2 50 -4 104 -5 120 0 15 -4
27 -9 27 -4 0 -3 9 3 20 6 11 7 20 2 20 -10 0 -9 30 2 48 4 6 3 12 -1 12 -5 0
-9 9 -10 20 -1 11 2 18 6 16 4 -3 8 1 8 9 0 8 -3 15 -6 15 -3 0 -5 17 -4 37 1
21 2 38 3 38 4 0 8 56 10 127 2 54 6 76 14 71 6 -4 6 -1 -1 9 -7 8 -10 18 -7
21 4 4 8 30 9 59 2 29 4 53 5 53 1 0 4 16 6 35 2 19 7 46 11 60 3 14 7 36 8
50 1 14 3 25 5 25 1 0 4 14 6 30 3 17 9 32 15 33 5 2 7 7 4 12 -3 5 2 15 10
24 9 8 16 18 15 21 0 3 3 5 6 4 4 0 10 4 13 10 4 5 18 12 33 15 14 2 35 9 47
15 13 8 22 8 26 1 4 -6 12 -7 18 -3 16 10 44 12 222 14 91 1 156 6 164 13 11
8 13 8 7 -2 -4 -7 10 -3 31 9 49 27 54 32 56 58 1 11 5 21 10 21 5 0 7 9 4 20
-3 11 -2 20 2 20 4 0 8 6 9 13 0 6 3 23 7 37 4 14 8 33 8 43 1 9 5 17 9 17 4
0 8 11 8 24 0 14 4 27 9 31 6 3 8 14 6 25 -2 11 0 20 6 20 5 0 9 11 9 25 0 14
5 25 11 25 6 0 9 7 6 15 -4 8 -2 17 4 21 6 3 8 12 5 20 -3 8 1 17 9 20 8 4 13
10 10 14 -3 5 4 28 14 53 11 25 17 48 14 51 -4 3 -2 6 4 6 10 0 28 46 25 63
-1 4 3 7 8 7 5 0 9 3 9 8 -3 12 25 72 33 72 4 0 8 5 8 11 0 5 -6 7 -12 3 -7
-4 -6 1 3 12 9 10 20 29 23 42 4 12 12 22 18 22 6 0 9 3 5 6 -3 4 7 31 24 60
16 30 26 54 22 54 -4 0 2 7 13 15 10 8 15 15 11 15 -5 0 -1 7 7 16 9 8 16 24
16 35 0 11 7 22 15 25 8 4 12 10 9 15 -3 5 0 9 5 9 6 0 11 7 11 15 0 8 5 15
11 15 5 0 8 4 5 9 -4 5 -2 11 3 13 5 1 11 9 13 17 2 8 10 22 18 32 34 40 41
49 35 49 -3 0 18 32 45 70 27 39 47 70 44 70 -3 0 4 9 17 20 13 10 21 19 17
20 -7 0 17 30 69 86 12 13 20 24 17 24 -5 0 8 18 49 61 15 16 27 31 27 34 0 8
91 105 216 230 135 134 204 199 204 191 0 -2 17 11 38 29 20 19 53 47 72 64
19 17 38 31 43 31 4 0 19 11 32 24 13 14 33 27 44 31 10 3 22 12 25 20 3 8 12
15 20 15 8 0 16 4 18 8 4 11 94 72 106 72 6 0 12 3 14 8 6 13 67 52 83 52 9 0
18 6 21 14 3 8 15 17 27 20 13 3 32 15 45 26 12 11 22 18 22 16 0 -3 43 17 95
45 52 28 95 47 95 42 0 -4 4 -3 8 4 6 10 110 62 137 68 6 2 47 19 93 39 45 19
82 33 82 29 0 -3 7 0 15 7 8 7 15 9 15 6 0 -4 10 -1 23 6 12 7 25 13 30 14 4
1 10 3 15 4 11 4 26 8 40 9 7 0 11 5 8 10 -4 5 2 8 11 6 10 -1 24 2 31 8 7 5
15 7 19 4 3 -3 18 0 33 8 15 8 30 11 34 8 3 -4 6 -2 6 3 0 5 14 10 31 11 17 1
36 6 43 11 6 5 19 8 29 7 9 -2 17 1 17 6 0 5 7 9 15 9 8 0 15 4 15 9 0 5 9 13
20 16 11 3 20 13 20 21 0 8 5 14 10 14 6 0 10 9 10 21 0 11 4 17 10 14 6 -3 7
1 4 9 -3 9 -1 16 6 16 6 0 8 5 5 10 -3 6 -3 10 2 10 4 0 9 17 11 37 1 20 7 42
13 49 7 8 6 13 -3 16 -10 4 -10 8 -1 19 6 8 13 36 14 62 2 26 6 47 9 47 3 0 5
18 4 40 -1 22 2 40 5 40 4 0 7 22 6 49 0 27 3 47 8 44 4 -2 7 2 7 10 0 14 19
27 49 33 8 1 26 6 40 10 14 4 30 6 35 5 4 -1 13 2 20 7 6 4 25 9 41 11 17 2
32 6 35 10 3 4 17 6 33 6 15 -1 27 2 27 6 0 3 10 6 23 5 12 -1 40 3 62 9 22 6
50 10 63 9 12 0 22 2 22 5 0 4 26 8 58 9 89 3 102 5 102 15 0 5 6 4 13 -2 8
-6 16 -9 19 -6z"/>
<path d="M9875 14160 c-4 -6 -10 -8 -14 -5 -5 2 -19 -4 -31 -15 -16 -14 -21
-27 -18 -45 3 -14 1 -28 -4 -31 -4 -3 -5 -10 -2 -16 9 -15 9 -172 0 -186 -4
-7 -2 -12 3 -12 6 0 11 -5 11 -11 0 -5 -6 -7 -12 -3 -9 5 -9 2 1 -9 11 -14 11
-17 0 -17 -11 0 -11 -2 1 -10 12 -8 12 -10 1 -10 -11 0 -11 -3 -1 -15 10 -12
10 -15 -1 -15 -9 0 -10 -3 -4 -8 12 -8 14 -82 2 -82 -5 0 -5 -5 -1 -12 11 -17
10 -78 -1 -78 -5 0 -3 -5 5 -10 13 -9 13 -10 0 -10 -13 0 -13 -1 0 -10 12 -8
12 -10 1 -10 -11 0 -11 -3 -1 -15 8 -10 9 -15 2 -15 -6 0 -9 -7 -6 -15 5 -12
-1 -14 -25 -11 -17 2 -28 -1 -25 -5 3 -5 -5 -10 -18 -10 -31 -2 -61 -5 -73 -9
-22 -6 -31 -7 -53 -8 -16 -2 -21 -6 -16 -14 6 -10 5 -10 -8 -1 -8 7 -17 10
-20 7 -7 -6 -56 -17 -85 -18 -11 -1 -19 -4 -16 -8 4 -7 -37 -13 -59 -9 -5 0
-8 -3 -8 -9 0 -5 -7 -7 -15 -4 -9 4 -15 0 -15 -7 0 -11 -3 -11 -10 1 -6 10
-10 11 -10 3 0 -7 -9 -13 -20 -13 -11 0 -20 -4 -20 -10 0 -5 -7 -7 -15 -4 -8
4 -21 2 -28 -4 -7 -6 -24 -13 -37 -15 -14 -2 -38 -9 -53 -16 -16 -6 -33 -8
-39 -5 -7 4 -8 2 -4 -4 4 -7 1 -12 -9 -12 -8 0 -23 -4 -33 -9 -9 -5 -44 -20
-77 -32 -33 -13 -63 -28 -67 -33 -4 -6 -8 -7 -8 -2 0 5 -6 3 -13 -3 -8 -6 -17
-8 -20 -4 -4 3 -7 1 -7 -6 0 -7 -4 -9 -10 -6 -5 3 -10 1 -10 -6 0 -7 -3 -10
-6 -6 -3 3 -26 -6 -50 -19 -24 -14 -44 -22 -44 -19 0 4 -7 -1 -16 -9 -8 -9
-22 -16 -30 -16 -8 0 -14 -4 -14 -10 0 -5 -3 -9 -7 -8 -13 3 -63 -25 -63 -34
0 -5 -4 -7 -9 -4 -5 3 -20 -5 -35 -19 -14 -13 -26 -19 -26 -12 0 7 -5 4 -11
-6 -6 -9 -14 -15 -20 -12 -5 4 -9 2 -9 -3 0 -5 -12 -15 -27 -23 -16 -7 -45
-26 -65 -42 -21 -16 -38 -25 -38 -20 0 4 -11 -5 -25 -21 -14 -16 -25 -25 -25
-20 0 5 -7 0 -15 -10 -8 -11 -15 -17 -15 -13 0 8 -22 -8 -48 -35 -9 -10 -21
-18 -27 -18 -6 0 -18 -8 -26 -17 -9 -10 -32 -31 -53 -48 -20 -16 -50 -42 -66
-57 -17 -15 -30 -26 -30 -24 0 3 -44 -39 -97 -92 -54 -53 -101 -95 -106 -94
-4 1 -6 -2 -5 -6 4 -11 -49 -72 -56 -65 -3 4 -6 0 -6 -7 0 -7 -11 -23 -26 -36
-14 -13 -22 -24 -19 -24 3 0 0 -6 -7 -14 -7 -8 -17 -11 -22 -8 -5 3 -6 0 -2
-6 3 -6 -2 -17 -12 -24 -11 -7 -20 -17 -20 -21 0 -5 -15 -27 -34 -49 -18 -23
-32 -45 -31 -49 2 -4 -6 -11 -17 -14 -11 -4 -18 -10 -15 -14 2 -4 -5 -17 -15
-29 -11 -12 -20 -26 -20 -32 0 -5 -4 -10 -10 -10 -5 0 -10 -7 -10 -15 0 -7 -6
-18 -13 -22 -7 -4 -18 -21 -25 -36 -7 -15 -17 -25 -22 -22 -5 3 -7 0 -4 -9 3
-8 -3 -23 -14 -34 -11 -11 -18 -23 -14 -26 3 -3 0 -6 -7 -6 -7 0 -9 -4 -6 -10
3 -5 1 -10 -5 -10 -6 0 -8 -4 -5 -10 3 -5 2 -10 -3 -10 -9 0 -147 -270 -154
-300 -2 -8 -9 -21 -16 -28 -7 -8 -10 -18 -7 -23 4 -5 1 -9 -6 -9 -7 0 -10 -3
-7 -6 4 -3 0 -17 -7 -31 -8 -15 -12 -30 -9 -35 3 -4 1 -8 -4 -8 -6 0 -13 -16
-16 -35 -4 -19 -12 -35 -17 -35 -6 0 -8 -9 -4 -20 3 -11 2 -20 -3 -20 -5 0
-17 -29 -27 -65 -11 -36 -22 -65 -25 -65 -4 0 -6 -10 -5 -22 1 -13 -3 -29 -9
-37 -6 -8 -9 -15 -7 -15 2 -1 -2 -21 -9 -46 -19 -71 -22 -84 -23 -102 -1 -10
-4 -18 -7 -18 -3 0 -6 -10 -6 -22 -1 -13 -4 -35 -8 -49 -3 -14 -8 -41 -10 -60
-3 -19 -6 -34 -7 -34 -1 0 -3 -13 -4 -30 -2 -16 -4 -30 -5 -30 -1 0 -3 -15 -5
-33 -2 -19 -7 -37 -10 -40 -12 -12 -229 -10 -244 2 -11 8 -13 8 -8 -1 4 -6 3
-14 -3 -18 -5 -3 -10 -1 -10 5 0 6 -5 8 -10 5 -6 -4 -18 -1 -27 7 -10 8 -14 8
-10 1 4 -6 3 -14 -3 -18 -5 -3 -10 -3 -10 2 0 10 -93 8 -110 -2 -7 -5 -11 -4
-7 1 6 11 -157 9 -174 -2 -9 -5 -10 -2 -6 12 6 16 5 17 -5 4 -7 -8 -26 -15
-41 -14 -15 1 -30 -3 -34 -9 -4 -6 0 -7 8 -3 8 4 5 0 -5 -8 -11 -9 -19 -28
-19 -45 0 -17 -4 -28 -9 -25 -4 3 -5 -1 -2 -9 10 -27 9 -127 -1 -127 -5 0 -3
-5 5 -10 12 -8 13 -11 1 -19 -11 -7 -11 -9 0 -14 11 -4 11 -6 1 -6 -9 -1 -10
-6 -3 -20 6 -10 8 -21 5 -24 -4 -3 -6 -42 -5 -87 1 -63 -2 -80 -11 -74 -7 4
-4 -2 6 -14 11 -12 15 -22 9 -22 -5 0 -8 -14 -5 -30 2 -17 -2 -38 -9 -47 -10
-12 -10 -15 -1 -9 9 6 12 -10 11 -71 -2 -57 1 -77 10 -75 7 1 9 -2 6 -9 -4 -6
2 -19 13 -29 15 -14 22 -16 25 -7 4 8 6 8 6 -2 1 -11 6 -10 23 5 12 10 18 13
14 7 -4 -8 -1 -13 9 -13 10 0 13 5 9 13 -5 8 -2 7 9 -2 10 -8 20 -11 24 -8 3
4 13 1 21 -6 13 -9 14 -9 8 1 -4 6 -3 12 3 12 5 0 12 -8 14 -17 4 -17 5 -17 6
-1 1 18 24 20 48 5 6 -4 14 -4 17 1 3 5 19 7 37 4 25 -4 30 -2 24 9 -7 11 -5
11 9 0 15 -13 19 -13 27 0 5 8 9 9 9 2 0 -7 19 -11 50 -11 36 -1 49 2 44 11
-4 7 2 4 13 -6 15 -13 23 -15 28 -7 6 9 10 9 16 -1 5 -8 9 -9 9 -3 0 6 7 11
15 11 8 0 15 -5 15 -11 0 -7 3 -7 8 -1 11 15 152 13 152 -2 0 -7 4 -13 8 -13
5 0 9 -13 10 -30 1 -16 3 -43 4 -60 1 -16 4 -30 7 -30 5 0 9 -29 14 -100 1
-14 5 -27 9 -30 4 -3 8 -20 10 -38 1 -18 5 -32 8 -32 4 0 7 -6 7 -12 3 -38 11
-75 21 -94 6 -12 9 -24 5 -27 -3 -4 0 -13 7 -22 7 -8 10 -24 7 -35 -3 -11 -1
-18 4 -14 8 4 14 -25 10 -48 0 -5 4 -8 10 -8 6 0 9 -7 6 -15 -4 -8 -2 -17 3
-20 7 -5 28 -63 33 -95 0 -3 6 -16 13 -29 7 -14 10 -29 7 -34 -3 -6 -1 -7 5
-3 7 4 12 1 12 -7 0 -13 18 -60 56 -144 8 -17 14 -36 14 -42 0 -6 5 -11 11
-11 5 0 7 -4 4 -10 -3 -5 -1 -10 4 -10 6 0 11 -9 11 -20 0 -11 4 -20 8 -20 5
0 15 -18 22 -40 7 -22 17 -40 22 -40 4 0 8 -4 8 -9 0 -6 17 -38 37 -73 21 -35
36 -66 35 -70 -1 -5 3 -8 9 -8 5 0 7 -4 4 -10 -3 -5 2 -10 11 -10 10 0 15 -3
11 -6 -3 -4 5 -22 20 -40 14 -19 22 -34 18 -34 -5 0 2 -9 14 -19 12 -11 22
-22 22 -25 -3 -20 0 -26 9 -21 6 3 10 -1 10 -9 0 -8 6 -19 14 -23 8 -4 14 -12
14 -17 0 -8 30 -49 67 -89 12 -12 21 -24 21 -27 0 -5 7 -14 61 -78 13 -15 23
-31 23 -35 0 -5 4 -6 9 -2 5 3 12 -3 16 -14 3 -11 12 -22 20 -25 8 -3 15 -12
15 -21 0 -8 5 -15 11 -15 14 0 40 -26 33 -33 -3 -3 4 -8 15 -12 12 -3 21 -13
21 -21 0 -8 5 -12 10 -9 6 3 10 -1 10 -10 0 -9 5 -13 10 -10 6 3 10 -1 10 -9
0 -9 5 -16 11 -16 6 0 32 -22 57 -50 25 -27 52 -50 59 -50 8 0 11 -4 8 -10 -3
-5 -1 -10 6 -10 6 0 19 -8 28 -18 9 -9 45 -40 80 -67 35 -28 72 -58 82 -67 11
-10 19 -16 19 -13 0 3 12 -6 28 -20 15 -14 37 -28 49 -31 13 -4 20 -10 17 -15
-5 -8 9 -13 29 -10 4 0 7 -6 7 -16 0 -9 3 -13 6 -10 4 4 19 -2 34 -13 16 -11
33 -20 38 -20 5 0 13 -7 16 -16 3 -8 10 -12 16 -9 5 3 10 1 10 -4 0 -6 6 -11
14 -11 8 0 16 -5 18 -11 2 -5 11 -11 20 -12 9 -2 22 -8 29 -14 28 -22 208
-111 213 -105 3 3 6 0 6 -6 0 -7 7 -12 15 -12 8 0 15 -4 15 -10 0 -5 7 -7 15
-4 8 4 15 1 15 -5 0 -6 3 -10 8 -9 12 3 52 -13 52 -21 0 -5 8 -8 18 -8 16 1
53 -13 96 -35 19 -10 51 -19 74 -20 6 -1 12 -5 12 -10 0 -5 4 -7 9 -3 5 3 12
1 16 -5 3 -5 17 -10 30 -10 13 0 27 -5 30 -10 4 -6 14 -10 23 -8 10 1 26 -3
37 -9 11 -6 34 -13 50 -16 17 -3 44 -10 62 -15 17 -6 34 -8 37 -4 3 3 6 1 6
-4 0 -10 12 -12 80 -17 17 -1 30 -5 30 -8 0 -6 11 -8 60 -11 17 -1 30 -4 30
-8 0 -3 12 -7 28 -7 15 -1 41 -4 57 -6 l30 -4 2 -104 c2 -57 4 -132 5 -167 2
-34 0 -62 -3 -62 -4 0 -3 -18 1 -40 4 -22 4 -40 -1 -40 -4 0 -4 -13 1 -30 5
-19 5 -30 -1 -30 -6 0 -5 -8 1 -20 8 -14 8 -20 0 -20 -6 0 -9 -4 -6 -8 3 -5 6
-36 7 -70 1 -34 6 -62 9 -62 4 0 10 -9 13 -21 3 -12 10 -18 17 -14 6 4 17 1
25 -5 9 -7 15 -8 15 -3 0 7 15 8 40 3 23 -4 40 -3 40 2 0 5 5 6 12 2 17 -11
588 -12 588 -2 0 4 7 8 15 8 8 0 15 7 15 15 0 8 3 15 8 15 4 0 7 144 6 320 -1
176 3 317 7 314 5 -3 9 -1 9 3 0 5 17 10 39 11 21 2 49 5 62 8 13 3 39 6 57 6
17 1 32 4 32 8 0 4 15 7 33 8 48 3 70 7 93 20 12 6 24 9 27 6 4 -5 65 9 107
24 8 3 25 4 38 3 12 -1 22 3 22 9 0 6 4 9 9 5 5 -3 12 -1 16 5 3 5 17 10 30
10 13 0 27 5 30 11 4 6 13 8 20 5 7 -2 21 1 31 9 11 7 22 13 27 14 4 0 9 2 12
2 3 1 8 2 13 3 29 7 58 20 64 30 6 8 8 7 8 -1 0 -9 10 -6 32 7 17 10 35 17 40
14 4 -3 8 0 8 5 0 6 3 10 8 9 19 -5 72 15 66 24 -4 6 -3 8 3 5 5 -3 31 5 58
18 26 14 51 22 56 20 4 -3 12 2 17 10 4 9 18 17 30 18 12 1 22 5 22 9 0 4 27
19 60 34 33 15 60 30 60 33 0 4 16 13 35 21 19 8 35 17 35 21 0 4 10 11 22 15
12 3 26 10 32 15 18 15 165 113 188 126 11 6 23 15 27 20 3 4 24 21 46 38 22
16 43 34 47 39 4 6 11 11 16 11 4 0 22 15 40 33 18 18 32 30 32 27 0 -3 11 5
24 19 13 15 26 26 29 26 10 0 74 69 69 75 -5 5 14 9 31 6 4 0 7 4 7 9 0 6 30
41 68 79 37 38 83 88 102 111 19 23 44 51 54 61 11 11 17 19 13 19 -3 0 9 16
28 35 19 19 35 39 35 45 0 6 4 8 10 5 5 -3 7 0 4 8 -3 8 2 17 10 20 9 4 16 14
16 22 0 9 5 13 10 10 6 -3 10 0 10 7 0 7 11 25 24 40 14 14 22 29 19 32 -4 3
-1 6 5 6 7 0 12 6 12 14 0 8 8 21 18 28 9 7 18 20 20 28 2 8 10 19 18 23 8 4
14 17 14 27 0 10 8 24 18 29 9 6 13 11 9 11 -5 0 1 13 12 29 12 16 21 34 21
40 0 5 8 15 18 20 9 6 13 11 8 11 -5 0 -3 7 4 15 7 9 10 18 7 21 -3 3 2 14 11
24 27 29 37 44 38 55 2 27 27 74 37 68 5 -3 7 -1 3 5 -3 6 3 27 14 47 11 20
18 40 15 46 -4 5 -1 9 4 9 6 0 11 6 11 13 1 6 9 30 20 52 10 22 16 43 14 47
-3 5 -2 8 3 8 8 0 29 53 39 100 3 13 11 28 17 32 7 4 9 8 5 8 -4 0 -1 18 7 39
7 22 11 42 8 45 -4 3 -2 6 4 6 6 0 14 19 18 43 8 44 11 55 15 60 1 1 4 15 6
32 3 16 9 32 12 35 4 3 7 17 7 33 -1 15 2 27 6 27 4 0 6 8 4 18 -1 9 2 23 8
30 5 6 7 12 4 12 -3 0 0 24 7 53 6 28 11 64 11 79 -1 15 2 25 5 23 4 -2 8 17
8 43 2 50 23 77 54 69 9 -3 19 0 22 7 2 6 5 2 5 -9 1 -16 3 -17 10 -6 8 12 12
12 24 2 12 -9 17 -9 23 0 5 8 3 9 -6 4 -9 -5 -11 -4 -6 4 4 6 12 9 17 5 6 -3
26 -6 45 -6 23 0 32 -4 28 -11 -4 -8 -2 -7 7 1 7 6 19 12 27 12 8 0 10 -5 6
-12 -4 -7 3 -4 16 7 13 11 20 15 17 9 -4 -7 0 -15 9 -18 8 -3 13 -2 10 3 -3 5
1 11 9 15 8 3 17 0 21 -6 5 -7 2 -8 -6 -3 -9 5 -11 4 -6 -4 6 -9 11 -9 22 0
11 9 18 8 31 -2 10 -8 14 -9 10 -2 -5 8 2 11 22 11 19 -1 28 -5 24 -12 -5 -8
-3 -8 8 0 8 5 44 10 81 9 50 -1 69 2 73 13 3 8 12 11 20 8 13 -5 20 10 16 37
0 4 4 7 10 7 8 0 7 6 -2 17 -10 11 -10 14 -1 9 7 -4 12 -1 12 9 0 9 -4 14 -8
11 -4 -2 -8 4 -8 15 0 12 5 18 13 15 9 -4 7 4 -4 21 -10 15 -13 24 -8 21 7 -4
11 8 11 32 0 21 -4 36 -9 33 -5 -3 -4 3 1 14 6 11 9 28 8 39 -2 10 1 25 7 32
5 6 5 12 1 12 -11 0 -12 70 -1 88 5 6 4 12 -1 12 -6 0 -9 11 -8 25 0 14 6 25
11 25 7 0 7 3 0 8 -14 10 -17 32 -4 32 5 0 7 5 3 11 -11 18 -11 122 -1 137 6
7 6 12 0 12 -11 0 -11 29 1 48 4 7 1 15 -8 18 -9 3 -13 10 -10 15 3 5 -2 9
-11 9 -9 0 -14 4 -11 9 4 5 -2 8 -11 6 -10 -1 -26 2 -35 6 -10 6 -19 5 -23 -1
-3 -5 -11 -10 -16 -10 -6 0 -8 4 -4 10 3 5 -8 5 -26 -2 -24 -8 -33 -8 -39 2
-5 9 -9 9 -14 1 -4 -6 -12 -11 -17 -11 -6 0 -8 4 -5 8 2 4 -4 8 -14 8 -10 0
-16 -4 -14 -8 3 -4 0 -8 -5 -8 -6 0 -11 6 -11 13 0 7 -3 8 -8 2 -4 -5 -14 -10
-22 -10 -8 0 -18 5 -22 10 -5 6 -8 6 -8 -1 0 -11 -59 -12 -78 0 -6 3 -13 2
-17 -4 -3 -5 -11 -10 -16 -10 -6 0 -8 4 -4 10 3 5 -8 5 -26 -2 -24 -8 -33 -8
-39 2 -4 7 -10 8 -13 4 -4 -7 -79 -10 -119 -5 -5 1 -8 16 -8 35 0 19 -6 37
-12 39 -10 4 -10 6 0 6 8 1 10 6 5 14 -4 6 -9 21 -10 32 -1 11 -6 36 -10 55
-3 19 -5 41 -4 48 1 6 -2 12 -7 12 -4 0 -7 14 -6 30 1 17 -1 30 -6 30 -4 0 -6
10 -6 23 1 12 -2 27 -7 34 -4 6 -10 25 -12 42 -2 17 -9 39 -14 50 -8 14 -8 21
2 24 9 4 9 6 0 6 -7 1 -13 10 -13 21 0 11 -5 20 -11 20 -6 0 -9 6 -6 14 3 7 0
24 -7 38 -7 13 -11 29 -8 36 2 6 -1 12 -7 12 -6 0 -10 3 -9 8 2 10 -13 65 -22
77 -4 6 -11 25 -15 43 -3 17 -11 32 -16 32 -6 0 -8 4 -4 9 3 5 0 13 -6 16 -5
4 -8 13 -5 21 3 8 1 14 -4 14 -6 0 -10 5 -10 11 0 12 -31 81 -39 89 -4 3 -6
10 -7 15 -1 18 -28 75 -35 75 -4 0 -10 17 -14 37 -5 27 -9 33 -16 22 -7 -11
-9 -11 -9 4 0 16 -48 115 -61 127 -6 5 -67 108 -84 141 -5 10 -13 19 -17 19
-5 0 -8 7 -8 15 0 8 -4 15 -10 15 -5 0 -10 7 -10 15 0 8 -4 15 -8 15 -5 0 -18
18 -31 40 -12 22 -26 40 -30 40 -4 0 -14 12 -22 28 -8 15 -23 37 -34 49 -11
12 -29 33 -40 46 -50 63 -114 135 -157 178 -25 26 -44 50 -41 53 4 3 -1 6 -11
6 -9 0 -14 5 -11 10 3 6 1 10 -5 10 -15 0 -41 26 -33 34 4 3 1 6 -5 6 -7 0
-30 18 -52 40 -22 22 -44 40 -50 40 -5 0 -10 7 -10 16 0 8 -4 13 -8 10 -5 -3
-14 4 -22 14 -8 10 -17 17 -22 14 -4 -3 -8 3 -8 12 0 10 -3 15 -6 11 -3 -3
-17 6 -30 20 -13 14 -24 22 -24 17 0 -5 -5 -1 -11 9 -5 9 -14 17 -19 17 -6 0
-19 8 -30 18 -10 9 -30 27 -44 39 -13 12 -27 19 -30 16 -3 -4 -6 0 -6 7 0 7
-3 11 -6 8 -3 -4 -14 1 -24 10 -37 34 -50 43 -50 35 0 -4 -5 0 -11 10 -6 9
-14 15 -20 12 -5 -4 -9 -1 -9 6 0 7 -3 10 -6 6 -4 -3 -12 -1 -20 6 -32 29 -44
37 -44 32 0 -3 -10 3 -22 14 -11 11 -25 18 -30 15 -4 -3 -8 0 -8 6 0 6 -4 8
-10 5 -5 -3 -10 -1 -10 4 0 6 -7 11 -15 11 -8 0 -15 5 -15 11 0 5 -4 8 -9 4
-6 -3 -14 3 -20 12 -6 10 -11 14 -11 9 0 -5 -7 -3 -15 4 -8 7 -15 9 -15 4 0
-5 -4 -4 -8 1 -4 6 -38 26 -77 45 -38 19 -73 38 -76 43 -3 5 -10 8 -15 8 -5
-1 -22 4 -39 10 -16 7 -33 11 -37 10 -5 0 -8 4 -8 10 0 6 -7 9 -15 5 -8 -3
-15 -1 -15 5 0 6 -4 7 -10 4 -5 -3 -10 -3 -10 2 0 8 -62 33 -87 35 -7 1 -13 6
-13 11 0 6 -3 8 -6 4 -4 -3 -22 0 -41 8 -20 8 -44 15 -55 15 -10 0 -17 4 -14
8 2 4 -3 9 -12 10 -31 3 -47 7 -59 15 -7 5 -13 6 -13 2 0 -3 -16 1 -35 9 -19
8 -35 12 -35 8 0 -4 -5 0 -10 8 -7 11 -10 11 -10 2 0 -10 -5 -10 -22 -1 -13 7
-34 14 -48 16 -42 5 -55 8 -66 15 -6 4 -29 8 -52 9 -23 2 -42 7 -42 11 0 4 -5
8 -11 8 -5 0 -7 -6 -3 -12 6 -9 3 -9 -9 1 -9 7 -23 11 -32 8 -8 -4 -17 -2 -20
4 -4 5 -11 7 -16 4 -5 -4 -9 -3 -9 2 0 4 -15 7 -32 7 -18 -1 -39 4 -47 10 -12
9 -13 8 -6 -4 7 -12 6 -13 -6 -4 -8 6 -21 10 -30 9 -14 -2 -16 28 -16 285 -1
159 -4 293 -7 298 -3 6 -1 12 5 14 15 5 -32 50 -57 55 -43 9 -60 9 -71 0 -9
-6 -13 -5 -13 2 0 7 -10 10 -25 7 -15 -3 -25 0 -25 7 0 8 -3 8 -8 2 -4 -6 -16
-11 -27 -11 -11 0 -23 5 -27 11 -5 6 -8 6 -8 0 0 -6 -13 -10 -30 -10 -16 -1
-30 3 -30 8 0 4 -6 5 -12 0 -18 -11 -68 -12 -68 -1 0 5 -5 6 -12 2 -16 -10
-78 -12 -78 -3 0 4 -15 4 -33 0 -18 -5 -41 -5 -52 -1 -11 4 -30 4 -42 -1 -13
-5 -23 -5 -23 1 0 5 -12 5 -28 0 -16 -4 -36 -4 -45 1 -10 6 -18 5 -22 -1z
m787 -1456 c7 -5 8 -3 3 5 -6 10 -3 11 13 2 11 -6 35 -11 53 -13 19 -1 40 -6
46 -11 7 -5 19 -7 28 -4 8 4 17 2 20 -3 4 -6 17 -10 30 -10 13 0 26 -4 29 -9
4 -5 14 -8 24 -6 9 1 23 -2 30 -8 6 -5 12 -6 12 -2 0 4 8 1 17 -6 14 -12 15
-12 9 0 -6 9 -1 8 17 -3 23 -16 56 -26 85 -28 6 -1 12 -5 12 -10 0 -5 5 -6 10
-3 6 3 10 2 10 -4 0 -5 9 -8 20 -6 11 2 20 0 20 -5 0 -5 14 -11 30 -15 17 -4
30 -11 30 -15 0 -5 7 -7 15 -4 8 4 15 1 15 -7 0 -7 3 -10 6 -7 3 4 35 -9 70
-28 35 -19 71 -34 78 -34 8 0 16 -5 18 -10 2 -6 21 -17 43 -25 22 -8 36 -14
30 -15 -5 0 4 -7 20 -15 17 -8 39 -20 50 -27 84 -54 112 -74 128 -91 11 -14
17 -16 17 -6 0 8 7 4 16 -9 8 -12 20 -20 25 -17 5 4 9 1 9 -5 0 -6 16 -20 35
-31 19 -12 35 -27 35 -35 0 -8 3 -13 8 -12 15 3 42 -15 42 -28 0 -8 3 -13 8
-11 4 1 18 -8 32 -20 13 -13 28 -23 32 -23 5 0 6 -4 3 -10 -3 -5 -2 -10 4 -10
14 0 81 -67 74 -74 -4 -3 -1 -6 5 -6 14 0 62 -47 62 -61 0 -6 5 -7 10 -4 6 3
10 2 10 -4 0 -6 10 -21 23 -34 45 -49 77 -87 77 -93 0 -3 6 -11 13 -19 28 -30
46 -55 39 -55 -4 0 1 -5 11 -11 9 -5 17 -17 17 -24 0 -8 3 -15 8 -15 9 0 46
-62 44 -72 -1 -5 2 -8 7 -8 9 0 68 -94 92 -147 7 -18 18 -33 22 -33 5 0 6 -4
3 -8 -3 -5 3 -18 13 -28 9 -11 16 -25 13 -32 -2 -6 2 -12 9 -12 7 0 10 -3 6
-6 -3 -3 3 -22 14 -41 11 -19 17 -38 14 -44 -4 -5 1 -9 10 -9 9 0 13 -5 10
-10 -4 -6 -1 -17 5 -25 7 -8 10 -22 6 -30 -3 -9 -2 -13 4 -10 5 3 12 -7 16
-22 4 -15 9 -32 13 -38 3 -5 7 -19 8 -29 2 -11 8 -25 13 -31 5 -7 11 -28 12
-47 2 -20 6 -34 11 -31 4 2 7 -7 7 -21 0 -14 5 -28 10 -31 6 -3 10 -20 10 -36
0 -17 4 -38 9 -47 5 -9 11 -36 14 -59 4 -22 9 -52 12 -66 4 -15 2 -28 -6 -32
-8 -6 -10 -4 -4 6 6 11 5 11 -5 2 -8 -7 -22 -8 -40 -3 -16 5 -31 6 -34 3 -9
-9 -87 -9 -93 0 -2 4 -11 3 -19 -4 -11 -9 -14 -9 -14 0 0 8 -6 9 -17 4 -22
-10 -65 -9 -83 2 -8 5 -11 4 -7 -2 4 -6 -4 -10 -18 -10 -14 0 -22 4 -18 10 4
6 0 6 -12 -1 -11 -5 -30 -6 -47 -2 -17 6 -30 5 -34 -2 -5 -7 -2 -8 6 -3 8 5
11 4 6 -3 -9 -15 -38 -3 -29 12 4 8 2 8 -7 -1 -7 -6 -19 -9 -28 -6 -11 5 -13
3 -7 -8 8 -12 6 -12 -9 0 -14 12 -19 12 -25 2 -5 -7 -11 -12 -15 -12 -19 3
-29 0 -23 -6 4 -3 3 -11 -2 -17 -13 -16 -17 -49 -7 -65 6 -10 5 -12 -2 -7 -16
10 -15 -7 1 -23 10 -11 10 -13 0 -7 -9 5 -13 0 -13 -14 0 -14 4 -19 13 -14 9
6 9 4 1 -7 -6 -8 -10 -40 -10 -71 1 -33 -3 -58 -9 -58 -6 0 -6 -3 1 -8 11 -8
12 -51 0 -70 -4 -7 -4 -12 1 -12 10 0 9 -162 0 -177 -4 -7 -3 -14 3 -18 5 -3
10 -11 10 -16 0 -6 -4 -8 -8 -5 -5 3 -9 -1 -9 -9 0 -8 3 -15 7 -15 6 0 5 -56
0 -70 -1 -3 -1 -9 0 -15 1 -5 4 -19 6 -30 2 -11 8 -21 14 -23 6 -2 8 -7 6 -11
-3 -4 9 -12 25 -18 26 -10 29 -10 18 3 -10 13 -8 13 13 5 18 -7 29 -6 38 2 10
10 12 8 6 -7 -5 -14 -3 -16 6 -8 18 14 129 14 147 -1 10 -8 13 -8 8 -1 -4 7 0
14 7 17 8 3 17 1 20 -6 3 -9 7 -8 14 2 6 8 12 9 15 3 4 -5 38 -8 77 -7 46 1
70 -2 70 -9 0 -8 3 -8 8 0 4 5 31 10 60 11 l52 1 0 -32 c0 -18 -6 -38 -12 -45
-10 -11 -10 -13 0 -7 14 8 17 -10 3 -19 -6 -3 -8 -14 -6 -25 2 -11 0 -20 -4
-20 -4 0 -8 -6 -8 -12 -3 -43 -8 -68 -14 -68 -4 0 -6 -8 -4 -17 1 -10 0 -22
-4 -28 -3 -5 -6 -13 -7 -17 -1 -5 -2 -9 -4 -10 -1 -2 -3 -10 -5 -18 -2 -8 -8
-29 -13 -47 -6 -17 -8 -34 -4 -37 3 -3 0 -6 -6 -6 -7 0 -12 -6 -12 -14 0 -7
-8 -31 -17 -52 -9 -22 -18 -47 -20 -57 -2 -10 -10 -28 -18 -41 -8 -12 -12 -26
-8 -29 3 -4 1 -7 -6 -7 -7 0 -9 -5 -5 -11 3 -6 2 -14 -2 -18 -5 -3 -18 -25
-28 -48 -11 -24 -23 -43 -28 -43 -5 0 -6 -5 -2 -11 3 -6 3 -14 -2 -18 -8 -5
-35 -58 -36 -71 -1 -3 -8 -10 -17 -17 -9 -7 -12 -13 -8 -13 5 0 1 -7 -7 -16
-9 -8 -14 -19 -11 -24 3 -5 -4 -15 -15 -23 -11 -7 -18 -16 -15 -18 2 -3 -14
-28 -35 -57 -22 -29 -40 -56 -40 -61 0 -4 -13 -22 -30 -39 -16 -18 -30 -36
-30 -42 0 -5 -5 -10 -12 -10 -6 0 -9 -3 -6 -6 3 -3 -6 -18 -20 -33 -53 -55
-80 -89 -76 -94 3 -3 -4 -8 -15 -12 -12 -3 -21 -11 -21 -16 0 -11 -120 -129
-132 -129 -5 0 -7 -3 -5 -7 3 -5 -1 -14 -9 -21 -8 -7 -14 -10 -14 -6 0 4 -10
-5 -23 -19 -12 -15 -25 -27 -29 -27 -3 0 -25 -18 -49 -39 -23 -22 -45 -39 -48
-38 -3 1 -21 -13 -40 -30 -19 -18 -38 -30 -42 -27 -4 2 -11 -2 -16 -9 -4 -7
-29 -26 -55 -42 -27 -17 -48 -34 -48 -38 0 -5 -4 -6 -9 -2 -5 3 -15 -1 -23 -8
-7 -7 -38 -26 -68 -42 -30 -16 -63 -36 -72 -44 -10 -8 -18 -11 -18 -8 0 4 -20
-5 -45 -18 -25 -14 -48 -25 -52 -25 -5 0 -16 -7 -26 -16 -11 -8 -21 -13 -24
-10 -3 3 -15 0 -27 -7 -11 -6 -25 -12 -31 -13 -11 -1 -81 -30 -105 -43 -8 -4
-25 -7 -37 -6 -12 1 -20 -2 -17 -7 3 -4 -6 -8 -20 -8 -14 0 -26 -5 -26 -11 0
-6 -7 -8 -16 -5 -9 4 -23 1 -30 -5 -8 -6 -21 -9 -29 -5 -8 3 -15 1 -15 -5 0
-6 -4 -7 -10 -4 -5 3 -10 1 -10 -5 0 -6 -5 -8 -10 -5 -6 4 -17 1 -25 -5 -12
-10 -15 -10 -15 1 0 11 -2 11 -10 -1 -5 -8 -10 -12 -10 -8 0 4 -15 2 -32 -3
-18 -6 -49 -12 -68 -14 -19 -2 -44 -6 -56 -9 -21 -4 -21 -2 -21 239 -1 134 -4
249 -8 255 -3 5 0 10 7 11 10 0 10 2 1 6 -7 2 -13 10 -13 18 0 7 -8 19 -17 26
-9 8 -14 9 -10 2 5 -8 1 -8 -17 0 -13 7 -22 16 -19 21 4 5 1 6 -8 0 -20 -13
-91 -13 -108 0 -12 9 -13 8 -6 -4 8 -13 7 -13 -8 -1 -9 7 -17 9 -17 4 0 -12
-38 -14 -45 -3 -3 6 -16 5 -30 0 -16 -6 -25 -6 -25 0 0 6 -5 10 -11 10 -5 0
-8 -4 -5 -8 6 -10 -35 -9 -51 1 -8 5 -13 3 -14 -5 0 -8 -2 -9 -5 -2 -3 8 -16
9 -38 4 -19 -4 -40 -4 -46 0 -7 4 -24 4 -39 0 -14 -4 -35 -4 -46 0 -11 4 -28
4 -37 -1 -9 -5 -19 -6 -21 -1 -7 9 -90 7 -107 -3 -9 -6 -11 -4 -5 5 4 7 -6 2
-23 -10 -17 -13 -29 -27 -26 -32 3 -4 0 -8 -6 -8 -6 0 -8 -5 -5 -11 10 -15 10
-182 1 -197 -4 -7 -4 -12 1 -12 4 0 8 -13 8 -30 0 -16 -4 -30 -9 -30 -6 0 -5
-5 1 -11 7 -7 8 -21 3 -40 -5 -18 -5 -31 2 -35 6 -4 5 -10 -3 -15 -12 -7 -12
-9 0 -9 11 0 11 -3 1 -15 -7 -8 -8 -15 -3 -15 9 0 7 -59 -3 -89 -3 -10 -8 -11
-16 -3 -6 6 -16 8 -23 6 -7 -3 -16 -1 -19 4 -3 6 -15 8 -26 5 -11 -3 -20 -1
-20 3 0 5 -12 10 -27 10 -39 3 -75 12 -86 23 -5 5 -15 7 -21 5 -7 -3 -30 3
-52 12 -21 10 -48 19 -59 21 -11 2 -24 8 -29 13 -4 4 -15 6 -22 3 -8 -3 -14
-1 -14 5 0 6 -10 8 -22 4 -16 -4 -19 -2 -13 8 6 10 3 12 -13 8 -12 -4 -20 -2
-17 2 6 10 -51 31 -59 23 -3 -4 -6 -1 -6 5 0 7 -5 12 -10 12 -6 0 -30 9 -52
20 -23 11 -48 20 -55 20 -8 0 -11 5 -8 10 3 6 -3 10 -14 10 -12 0 -21 5 -21
11 0 5 -4 8 -9 4 -5 -3 -12 -1 -16 5 -4 6 -11 8 -16 5 -5 -4 -9 1 -9 10 0 11
-5 15 -15 11 -8 -3 -15 -1 -15 4 0 6 -6 10 -13 10 -7 0 -23 9 -35 20 -12 11
-27 20 -35 20 -8 0 -22 9 -31 19 -10 11 -31 25 -47 31 -16 7 -29 16 -29 21 0
5 -11 14 -25 19 -14 5 -28 16 -31 25 -3 8 -10 12 -15 9 -5 -3 -9 0 -9 5 0 6
-5 11 -12 11 -7 0 -23 12 -36 28 -13 15 -20 20 -16 12 5 -8 -10 2 -31 22 -22
20 -64 60 -94 87 -30 28 -58 51 -63 51 -5 0 -6 5 -3 10 3 6 -1 10 -9 10 -9 0
-16 7 -16 16 0 8 -4 12 -10 9 -5 -3 -10 -2 -10 2 0 5 -11 20 -24 35 -14 14
-22 29 -19 32 4 3 -1 6 -11 6 -9 0 -20 8 -23 17 -4 10 -16 27 -28 39 -11 11
-31 35 -45 53 -14 18 -31 39 -37 46 -7 8 -13 18 -13 24 0 6 -4 11 -10 11 -5 0
-10 7 -10 16 0 8 -4 13 -8 10 -4 -2 -13 8 -20 23 -7 15 -20 36 -30 47 -9 10
-26 36 -37 58 -11 21 -26 40 -32 43 -7 3 -10 9 -7 14 3 5 -2 16 -10 25 -9 8
-16 22 -16 30 0 8 -4 14 -10 14 -5 0 -10 7 -10 16 0 8 -7 22 -16 31 -8 9 -13
21 -10 28 3 8 -2 16 -10 19 -9 3 -12 10 -9 16 3 5 1 10 -4 10 -6 0 -11 9 -11
20 0 11 -4 20 -10 20 -5 0 -10 11 -10 24 0 13 -5 26 -10 28 -6 2 -12 13 -14
25 -3 12 -10 31 -16 43 -6 11 -8 26 -4 33 4 6 3 9 -1 4 -9 -8 -55 114 -57 151
0 12 -4 22 -9 22 -5 0 -9 14 -9 30 0 17 -4 30 -8 30 -4 0 -8 8 -9 18 -2 29
-11 71 -17 80 -3 5 -6 25 -8 45 -1 21 -5 37 -8 37 -3 0 -6 13 -6 30 -1 16 2
27 7 24 5 -3 9 3 9 13 1 17 1 17 11 -1 9 -15 13 -16 20 -5 7 12 9 11 10 -1 0
-10 3 -8 9 5 8 18 9 18 9 2 1 -15 5 -16 21 -7 11 6 20 7 20 3 0 -4 18 -8 40
-8 27 0 40 4 40 14 0 8 8 4 19 -10 18 -22 20 -22 26 -7 5 13 12 15 24 9 10 -6
23 -6 31 -1 9 6 17 5 22 -3 4 -7 8 -7 8 -2 0 16 50 11 61 -6 7 -12 9 -11 9 2
0 17 36 19 61 3 8 -5 9 -3 4 6 -6 10 -4 12 9 7 10 -4 15 -3 11 3 -3 6 3 10 15
10 12 0 19 4 16 9 -3 5 1 14 9 21 12 10 13 16 4 26 -9 11 -8 14 2 14 12 0 12
2 0 9 -9 6 -10 11 -2 15 6 4 8 13 4 19 -11 17 -10 31 2 39 6 5 5 8 -4 8 -11 0
-11 3 -1 15 10 12 10 15 0 15 -10 0 -10 3 0 15 10 12 10 15 -1 15 -12 0 -12 2
0 9 9 6 10 11 2 15 -6 4 -8 13 -4 19 12 20 12 37 0 37 -8 0 -7 3 1 9 8 4 14
12 14 16 0 4 -6 12 -14 16 -7 5 -8 9 -2 9 13 0 12 52 -1 62 -6 5 -6 8 2 8 13
0 14 39 1 57 -5 6 -5 14 1 17 11 7 9 25 -3 45 -6 9 -5 12 1 8 15 -10 11 186
-4 205 -7 8 -9 19 -5 24 4 4 -2 2 -12 -6 -13 -10 -17 -10 -12 -2 8 13 2 14
-51 14 -19 0 -33 5 -33 11 0 8 -3 9 -8 1 -9 -13 -45 -27 -38 -15 3 5 -16 7
-44 5 -27 -2 -52 1 -55 6 -4 6 -12 10 -18 10 -7 0 -6 -4 3 -11 11 -7 1 -9 -38
-5 -36 3 -50 1 -46 -6 5 -7 2 -8 -7 -2 -19 12 -139 12 -139 0 0 -5 -3 -6 -7
-2 -9 9 -10 75 -1 70 4 -3 7 4 6 13 -1 31 13 98 22 101 4 1 6 16 4 32 -2 17 0
30 5 30 5 0 12 19 16 43 5 23 9 44 10 47 1 3 5 13 8 23 17 44 20 53 24 70 2
10 9 28 15 40 7 12 11 28 10 35 -2 6 3 12 9 12 7 0 10 3 7 6 -4 3 0 17 7 31 8
15 11 31 8 36 -3 6 -1 7 5 3 7 -4 12 -1 12 9 0 9 8 30 17 48 9 18 18 34 19 37
1 3 5 15 9 28 4 12 12 22 18 22 6 0 8 3 5 6 -7 6 91 180 130 232 13 17 22 32
18 32 -3 0 2 9 12 19 37 41 60 71 54 71 -4 1 3 9 15 19 12 10 19 21 16 25 -4
3 -1 6 5 6 7 0 12 5 12 11 0 6 16 27 35 48 85 89 112 120 109 124 -2 2 7 10
21 17 13 7 27 22 31 32 3 10 10 16 15 13 5 -4 9 1 9 10 0 9 5 13 10 10 6 -3
10 -1 10 4 0 6 19 24 42 41 22 16 37 30 33 30 -5 0 6 11 25 25 19 14 37 30 41
36 3 6 8 9 10 8 2 -2 17 8 32 21 16 14 31 24 33 22 3 -2 15 9 26 23 11 14 22
24 25 21 5 -5 15 2 48 32 8 7 15 11 15 7 0 -5 12 3 44 32 8 7 16 9 20 6 3 -4
6 -1 6 5 0 7 7 12 15 12 8 0 15 4 15 9 0 7 22 17 45 20 5 1 22 14 50 39 8 7
16 12 17 12 2 -1 17 4 33 11 17 7 33 12 38 11 4 -1 7 3 7 9 0 5 5 7 10 4 6 -3
10 -2 10 2 0 7 39 27 75 39 6 1 39 15 75 30 36 15 71 27 78 27 6 0 12 4 12 9
0 5 5 6 10 3 6 -3 10 -2 10 4 0 5 9 8 20 6 11 -2 20 0 20 6 0 5 11 9 24 9 14
0 27 4 31 10 3 5 12 7 20 3 8 -3 15 -1 15 4 0 5 6 10 13 10 23 1 80 14 91 20
11 7 65 16 109 17 29 1 29 0 30 -62 1 -34 0 -62 -3 -62 -3 0 -3 -27 0 -60 3
-33 3 -60 -1 -60 -3 0 -3 -18 1 -40 4 -22 4 -40 -1 -40 -4 0 -4 -13 1 -30 5
-19 5 -30 -1 -30 -6 0 -5 -8 1 -20 6 -11 7 -20 2 -20 -4 0 -8 -9 -8 -20 0 -11
5 -20 11 -20 5 0 3 -5 -5 -10 -8 -5 -10 -10 -4 -10 6 0 11 -10 10 -22 -2 -27
16 -48 39 -48 9 0 14 -3 12 -7 -3 -5 6 -8 19 -8 13 0 24 3 24 8 0 4 5 7 11 7
5 0 8 -3 6 -8 -8 -11 97 -8 105 3 5 7 8 7 8 0 0 -16 542 -14 548 3 2 7 9 18
15 25 9 8 12 90 11 284 0 257 0 271 18 268 10 -2 23 -7 30 -11z m-2632 -2854
c0 -5 -2 -10 -4 -10 -3 0 -8 5 -11 10 -3 6 -1 10 4 10 6 0 11 -4 11 -10z"/>
<path d="M9874 11672 c4 -7 3 -12 -1 -12 -5 0 -18 -7 -29 -16 -10 -8 -12 -12
-4 -8 12 6 13 5 4 -7 -8 -10 -12 -118 -12 -359 -1 -434 1 -403 -14 -394 -10 5
-10 4 -1 -6 8 -9 6 -23 -9 -59 -26 -64 -54 -94 -119 -129 -52 -29 -58 -30
-182 -29 -76 1 -129 -2 -131 -8 -3 -7 -5 -7 -5 0 -1 10 -180 11 -207 1 -7 -3
-14 -2 -14 2 0 9 -73 7 -89 -2 -6 -4 -11 0 -12 11 0 10 -3 13 -6 6 -6 -16 -43
-17 -43 -1 0 6 -7 3 -15 -8 -8 -10 -15 -14 -15 -9 0 11 -110 14 -110 3 0 -4
-7 -5 -16 -1 -10 4 -21 -1 -27 -13 -14 -24 -16 -164 -2 -164 6 0 3 -5 -5 -10
-8 -5 -10 -10 -5 -10 6 0 10 -22 10 -50 0 -27 -3 -50 -6 -50 -4 0 -3 -16 1
-35 5 -24 4 -35 -4 -35 -6 0 -4 -5 4 -10 12 -8 13 -11 1 -19 -11 -7 -11 -9 0
-14 8 -3 9 -6 3 -6 -8 -1 -9 -12 -4 -36 5 -24 4 -35 -4 -35 -7 0 -6 -4 3 -9 9
-6 10 -11 2 -15 -6 -4 -8 -12 -5 -18 4 -6 6 -43 4 -82 -6 -146 -5 -184 5 -183
5 1 9 -3 8 -9 -1 -6 8 -11 20 -10 12 1 25 -3 29 -9 5 -6 8 -5 8 4 0 11 3 11
15 1 8 -7 15 -8 15 -3 0 5 9 9 20 9 11 0 20 -4 20 -8 0 -5 8 -4 18 1 13 7 23
6 30 -1 7 -7 12 -8 12 -2 0 5 11 10 25 10 15 1 22 -2 18 -9 -3 -6 -1 -7 6 -3
10 7 141 11 166 6 6 -1 15 -1 20 0 28 6 97 5 101 -2 3 -5 10 -5 16 -2 15 9
177 11 172 2 -3 -4 0 -8 5 -8 6 0 11 4 11 8 0 12 90 6 103 -7 6 -6 19 -11 29
-11 10 0 21 -7 24 -15 4 -8 11 -15 16 -15 29 0 103 -110 95 -140 -3 -11 0 -21
5 -22 6 -2 10 -142 11 -385 0 -272 3 -380 11 -376 6 4 4 -2 -4 -12 -8 -10 -10
-16 -3 -12 6 4 17 2 25 -5 15 -15 53 -23 44 -10 -3 5 1 9 9 9 8 0 12 -4 9 -9
-6 -10 25 -6 44 5 6 5 12 4 12 -1 0 -10 30 -9 48 2 7 4 12 2 12 -4 0 -6 5 -8
13 -3 18 11 37 12 37 2 0 -6 4 -7 10 -4 20 12 50 14 50 2 0 -7 4 -6 10 3 6 10
10 11 10 3 0 -9 7 -10 23 -5 25 9 67 8 91 -1 10 -4 15 -3 11 3 -3 6 -2 10 4
10 5 0 13 -5 16 -10 4 -6 12 -7 18 -3 18 11 47 11 47 -1 0 -6 4 -6 11 1 7 7
21 8 39 3 18 -5 32 -4 39 3 7 7 11 7 11 1 0 -12 29 -12 47 -1 6 4 14 3 18 -3
3 -5 11 -10 16 -10 6 0 7 5 3 11 -4 7 1 7 16 -1 12 -6 29 -9 38 -5 9 3 18 5
19 3 2 -2 9 7 18 18 12 18 15 81 15 403 1 209 4 381 9 381 4 0 7 14 6 30 -1
17 2 30 7 30 4 0 8 7 8 15 0 8 3 15 8 15 4 0 14 13 23 29 9 15 42 43 73 61
l58 32 180 2 c99 0 182 -2 185 -7 2 -4 12 -3 22 3 12 6 22 5 29 -2 7 -7 12 -8
12 -2 0 7 81 11 100 4 3 -2 10 -1 15 0 6 1 66 2 135 2 92 1 129 4 141 14 13
12 15 33 14 113 -2 55 -5 104 -9 109 -3 6 -2 14 4 17 8 5 7 12 -2 23 -10 12
-10 14 0 8 6 -4 12 -3 12 3 0 5 -5 13 -11 17 -8 4 -7 9 2 15 11 7 11 9 -1 9
-13 0 -13 1 0 10 12 8 13 11 1 19 -9 6 -10 11 -2 15 8 5 8 13 1 27 -8 14 -7
19 1 19 8 0 7 5 -2 17 -10 11 -10 14 -1 9 15 -9 16 6 0 22 -7 7 -8 12 -2 12
10 0 9 73 -1 90 -3 6 0 10 7 10 9 0 9 3 -2 10 -8 5 -10 10 -5 10 12 0 14 195
2 206 -12 13 -37 16 -117 16 -43 0 -81 5 -89 11 -11 9 -13 9 -8 1 5 -9 -64
-12 -267 -12 -150 1 -278 -2 -283 -5 -5 -3 -22 0 -37 8 -14 8 -24 10 -21 5 9
-15 -4 -12 -33 8 -15 10 -39 24 -54 32 -16 7 -28 16 -28 20 0 3 -9 16 -20 28
-17 18 -40 61 -44 82 -1 3 -5 11 -10 19 -7 11 -6 12 5 6 11 -7 12 -6 2 6 -9
11 -12 113 -13 389 0 302 -3 378 -14 395 -13 20 -23 22 -98 20 -45 -1 -91 3
-102 8 -12 6 -16 6 -12 -1 4 -7 -20 -10 -74 -8 -44 1 -80 -2 -80 -6 0 -5 -5
-6 -11 -2 -6 3 -95 7 -198 9 -104 1 -194 6 -201 10 -9 5 -11 4 -6 -3z"/>
<path d="M15280 14169 c-58 -44 -115 -89 -128 -100 -12 -10 -25 -19 -28 -19
-3 0 -19 -13 -37 -30 -18 -16 -35 -30 -39 -30 -4 0 -19 -11 -33 -25 -14 -14
-25 -22 -25 -18 0 4 -6 1 -13 -7 -7 -9 -28 -27 -47 -40 -19 -13 -39 -30 -43
-37 -4 -7 -12 -13 -17 -13 -5 0 -45 -28 -88 -62 -43 -35 -95 -74 -115 -88 -62
-41 -59 -56 30 -177 296 -401 537 -841 713 -1303 184 -482 307 -1017 345
-1500 3 -41 8 -100 10 -130 10 -110 12 -439 5 -585 -17 -306 -39 -490 -100
-820 -59 -319 -205 -785 -351 -1123 -164 -377 -416 -810 -646 -1110 -41 -53
-72 -103 -71 -111 3 -16 201 -177 231 -187 9 -4 17 -10 17 -13 0 -4 21 -23 48
-41 39 -29 135 -101 262 -200 14 -11 52 -40 85 -65 33 -25 76 -59 95 -75 44
-37 61 -37 88 -2 414 541 728 1107 956 1720 197 532 313 1034 380 1647 21 191
29 878 13 1100 -90 1234 -529 2419 -1263 3412 -64 87 -89 113 -106 113 -13 -1
-70 -37 -128 -81z"/>
<path d="M5007 14118 c-245 -329 -516 -791 -680 -1158 -13 -30 -34 -76 -46
-103 -80 -177 -208 -530 -275 -757 -43 -148 -108 -406 -121 -480 -3 -19 -10
-51 -15 -70 -14 -53 -67 -374 -76 -460 -2 -25 -6 -54 -8 -65 -3 -11 -8 -56
-12 -100 -3 -44 -8 -91 -10 -105 -24 -189 -24 -987 0 -1130 3 -14 7 -56 10
-95 13 -146 54 -432 86 -590 35 -173 51 -243 96 -414 114 -439 285 -884 502
-1309 154 -302 352 -626 517 -848 22 -29 60 -80 85 -114 24 -33 52 -60 61 -60
15 0 280 195 287 212 2 4 10 8 17 8 7 0 15 4 17 8 2 4 41 37 88 72 47 36 87
68 88 73 2 4 10 7 18 7 9 0 12 4 9 10 -3 6 0 10 7 10 7 0 29 14 48 30 19 16
40 34 47 40 7 5 15 10 19 10 4 0 19 12 33 28 15 15 30 28 34 29 21 6 77 57 77
70 0 9 -35 63 -78 122 -118 160 -332 487 -332 507 0 3 -8 18 -19 32 -57 82
-235 449 -323 667 -159 394 -290 881 -343 1275 -3 25 -8 56 -10 70 -2 14 -12
90 -21 170 -18 167 -28 766 -14 920 5 52 11 127 15 165 3 39 7 81 10 95 2 14
6 50 10 80 7 68 51 329 65 390 58 250 75 319 101 410 41 139 98 318 114 355 7
17 25 64 41 105 15 41 35 93 45 115 9 22 32 74 49 115 70 165 197 415 279 550
11 19 24 42 28 50 26 55 250 392 324 487 27 35 49 67 49 72 0 9 -47 49 -141
121 -18 14 -38 31 -46 38 -7 7 -13 11 -13 8 0 -5 -36 23 -66 52 -7 6 -15 12
-18 12 -6 0 -23 13 -79 62 -18 15 -35 28 -38 28 -3 0 -15 8 -27 18 -44 37 -58
48 -92 72 -19 13 -46 35 -60 47 -14 13 -33 26 -42 29 -10 3 -18 9 -18 13 0 5
-19 21 -42 37 -24 16 -47 35 -51 41 -4 7 -15 13 -22 13 -8 0 -15 5 -15 10 0 6
-9 10 -19 10 -14 0 -47 -37 -104 -112z"/>
</g>
</svg>
